<mxfile host="app.diagrams.net" agent="Mozilla/5.0 (Macintosh; Intel Mac OS X 10_15_7) AppleWebKit/605.1.15 (KHTML, like Gecko) Version/18.5 Safari/605.1.15" version="27.1.6">
  <diagram id="R2lEEEUBdFMjLlhIrx00" name="Page-1">
    <mxGraphModel dx="1780" dy="588" grid="1" gridSize="10" guides="1" tooltips="1" connect="1" arrows="1" fold="1" page="1" pageScale="1" pageWidth="850" pageHeight="1100" background="light-dark(#ffffff, #fcfcfc)" math="0" shadow="0" extFonts="Permanent Marker^https://fonts.googleapis.com/css?family=Permanent+Marker">
      <root>
        <mxCell id="0" />
        <mxCell id="1" parent="0" />
        <mxCell id="C-vyLk0tnHw3VtMMgP7b-2" value="events" style="shape=table;startSize=30;container=1;collapsible=1;childLayout=tableLayout;fixedRows=1;rowLines=0;fontStyle=1;align=center;resizeLast=1;textShadow=0;fontColor=light-dark(#000000,#000000);strokeColor=light-dark(#000000,#000000);fillColor=light-dark(#FFFFFF,#CDA2BE);rounded=1;" parent="1" vertex="1">
          <mxGeometry x="20" y="40" width="250" height="520" as="geometry" />
        </mxCell>
        <mxCell id="C-vyLk0tnHw3VtMMgP7b-3" value="" style="shape=partialRectangle;collapsible=0;dropTarget=0;pointerEvents=0;fillColor=none;points=[[0,0.5],[1,0.5]];portConstraint=eastwest;top=0;left=0;right=0;bottom=1;textShadow=0;fontColor=light-dark(#000000,#000000);strokeColor=light-dark(#000000,#000000);rounded=1;" parent="C-vyLk0tnHw3VtMMgP7b-2" vertex="1">
          <mxGeometry y="30" width="250" height="30" as="geometry" />
        </mxCell>
        <mxCell id="C-vyLk0tnHw3VtMMgP7b-4" value="PK" style="shape=partialRectangle;overflow=hidden;connectable=0;fillColor=none;top=0;left=0;bottom=0;right=0;fontStyle=1;textShadow=0;fontColor=light-dark(#000000,#000000);strokeColor=light-dark(#000000,#000000);rounded=1;" parent="C-vyLk0tnHw3VtMMgP7b-3" vertex="1">
          <mxGeometry width="30" height="30" as="geometry">
            <mxRectangle width="30" height="30" as="alternateBounds" />
          </mxGeometry>
        </mxCell>
        <mxCell id="C-vyLk0tnHw3VtMMgP7b-5" value="id" style="shape=partialRectangle;overflow=hidden;connectable=0;fillColor=none;top=0;left=0;bottom=0;right=0;align=left;spacingLeft=6;fontStyle=5;textShadow=0;fontColor=light-dark(#000000,#000000);strokeColor=light-dark(#000000,#000000);rounded=1;" parent="C-vyLk0tnHw3VtMMgP7b-3" vertex="1">
          <mxGeometry x="30" width="220" height="30" as="geometry">
            <mxRectangle width="220" height="30" as="alternateBounds" />
          </mxGeometry>
        </mxCell>
        <mxCell id="90S8i4eGVS4S6o-vOTUU-73" value="" style="shape=partialRectangle;collapsible=0;dropTarget=0;pointerEvents=0;fillColor=none;points=[[0,0.5],[1,0.5]];portConstraint=eastwest;top=0;left=0;right=0;bottom=0;textShadow=0;fontColor=light-dark(#000000,#000000);strokeColor=light-dark(#000000,#000000);rounded=1;" parent="C-vyLk0tnHw3VtMMgP7b-2" vertex="1">
          <mxGeometry y="60" width="250" height="30" as="geometry" />
        </mxCell>
        <mxCell id="90S8i4eGVS4S6o-vOTUU-74" value="" style="shape=partialRectangle;overflow=hidden;connectable=0;fillColor=none;top=0;left=0;bottom=0;right=0;textShadow=0;fontColor=light-dark(#000000,#000000);strokeColor=light-dark(#000000,#000000);rounded=1;" parent="90S8i4eGVS4S6o-vOTUU-73" vertex="1">
          <mxGeometry width="30" height="30" as="geometry">
            <mxRectangle width="30" height="30" as="alternateBounds" />
          </mxGeometry>
        </mxCell>
        <mxCell id="90S8i4eGVS4S6o-vOTUU-75" value="title" style="shape=partialRectangle;overflow=hidden;connectable=0;fillColor=none;top=0;left=0;bottom=0;right=0;align=left;spacingLeft=6;textShadow=0;fontColor=light-dark(#000000,#000000);strokeColor=light-dark(#000000,#000000);rounded=1;" parent="90S8i4eGVS4S6o-vOTUU-73" vertex="1">
          <mxGeometry x="30" width="220" height="30" as="geometry">
            <mxRectangle width="220" height="30" as="alternateBounds" />
          </mxGeometry>
        </mxCell>
        <mxCell id="qVUILYzi2cgCOJXywEAA-1" style="shape=partialRectangle;collapsible=0;dropTarget=0;pointerEvents=0;fillColor=none;points=[[0,0.5],[1,0.5]];portConstraint=eastwest;top=0;left=0;right=0;bottom=0;textShadow=0;fontColor=light-dark(#000000,#000000);strokeColor=light-dark(#000000,#000000);rounded=1;" vertex="1" parent="C-vyLk0tnHw3VtMMgP7b-2">
          <mxGeometry y="90" width="250" height="30" as="geometry" />
        </mxCell>
        <mxCell id="qVUILYzi2cgCOJXywEAA-2" style="shape=partialRectangle;overflow=hidden;connectable=0;fillColor=none;top=0;left=0;bottom=0;right=0;textShadow=0;fontColor=light-dark(#000000,#000000);strokeColor=light-dark(#000000,#000000);rounded=1;" vertex="1" parent="qVUILYzi2cgCOJXywEAA-1">
          <mxGeometry width="30" height="30" as="geometry">
            <mxRectangle width="30" height="30" as="alternateBounds" />
          </mxGeometry>
        </mxCell>
        <mxCell id="qVUILYzi2cgCOJXywEAA-3" value="date" style="shape=partialRectangle;overflow=hidden;connectable=0;fillColor=none;top=0;left=0;bottom=0;right=0;align=left;spacingLeft=6;textShadow=0;fontColor=light-dark(#000000,#000000);strokeColor=light-dark(#000000,#000000);rounded=1;" vertex="1" parent="qVUILYzi2cgCOJXywEAA-1">
          <mxGeometry x="30" width="220" height="30" as="geometry">
            <mxRectangle width="220" height="30" as="alternateBounds" />
          </mxGeometry>
        </mxCell>
        <mxCell id="qVUILYzi2cgCOJXywEAA-7" style="shape=partialRectangle;collapsible=0;dropTarget=0;pointerEvents=0;fillColor=none;points=[[0,0.5],[1,0.5]];portConstraint=eastwest;top=0;left=0;right=0;bottom=0;textShadow=0;fontColor=light-dark(#000000,#000000);strokeColor=light-dark(#000000,#000000);rounded=1;" vertex="1" parent="C-vyLk0tnHw3VtMMgP7b-2">
          <mxGeometry y="120" width="250" height="30" as="geometry" />
        </mxCell>
        <mxCell id="qVUILYzi2cgCOJXywEAA-8" style="shape=partialRectangle;overflow=hidden;connectable=0;fillColor=none;top=0;left=0;bottom=0;right=0;textShadow=0;fontColor=light-dark(#000000,#000000);strokeColor=light-dark(#000000,#000000);rounded=1;" vertex="1" parent="qVUILYzi2cgCOJXywEAA-7">
          <mxGeometry width="30" height="30" as="geometry">
            <mxRectangle width="30" height="30" as="alternateBounds" />
          </mxGeometry>
        </mxCell>
        <mxCell id="qVUILYzi2cgCOJXywEAA-9" value="start_time" style="shape=partialRectangle;overflow=hidden;connectable=0;fillColor=none;top=0;left=0;bottom=0;right=0;align=left;spacingLeft=6;textShadow=0;fontColor=light-dark(#000000,#000000);strokeColor=light-dark(#000000,#000000);rounded=1;" vertex="1" parent="qVUILYzi2cgCOJXywEAA-7">
          <mxGeometry x="30" width="220" height="30" as="geometry">
            <mxRectangle width="220" height="30" as="alternateBounds" />
          </mxGeometry>
        </mxCell>
        <mxCell id="qVUILYzi2cgCOJXywEAA-10" style="shape=partialRectangle;collapsible=0;dropTarget=0;pointerEvents=0;fillColor=none;points=[[0,0.5],[1,0.5]];portConstraint=eastwest;top=0;left=0;right=0;bottom=0;textShadow=0;fontColor=light-dark(#000000,#000000);strokeColor=light-dark(#000000,#000000);rounded=1;" vertex="1" parent="C-vyLk0tnHw3VtMMgP7b-2">
          <mxGeometry y="150" width="250" height="30" as="geometry" />
        </mxCell>
        <mxCell id="qVUILYzi2cgCOJXywEAA-11" style="shape=partialRectangle;overflow=hidden;connectable=0;fillColor=none;top=0;left=0;bottom=0;right=0;textShadow=0;fontColor=light-dark(#000000,#000000);strokeColor=light-dark(#000000,#000000);rounded=1;" vertex="1" parent="qVUILYzi2cgCOJXywEAA-10">
          <mxGeometry width="30" height="30" as="geometry">
            <mxRectangle width="30" height="30" as="alternateBounds" />
          </mxGeometry>
        </mxCell>
        <mxCell id="qVUILYzi2cgCOJXywEAA-12" value="end_time" style="shape=partialRectangle;overflow=hidden;connectable=0;fillColor=none;top=0;left=0;bottom=0;right=0;align=left;spacingLeft=6;textShadow=0;fontColor=light-dark(#000000,#000000);strokeColor=light-dark(#000000,#000000);rounded=1;" vertex="1" parent="qVUILYzi2cgCOJXywEAA-10">
          <mxGeometry x="30" width="220" height="30" as="geometry">
            <mxRectangle width="220" height="30" as="alternateBounds" />
          </mxGeometry>
        </mxCell>
        <mxCell id="qVUILYzi2cgCOJXywEAA-25" style="shape=partialRectangle;collapsible=0;dropTarget=0;pointerEvents=0;fillColor=none;points=[[0,0.5],[1,0.5]];portConstraint=eastwest;top=0;left=0;right=0;bottom=0;textShadow=0;fontColor=light-dark(#000000,#000000);strokeColor=light-dark(#000000,#000000);rounded=1;" vertex="1" parent="C-vyLk0tnHw3VtMMgP7b-2">
          <mxGeometry y="180" width="250" height="30" as="geometry" />
        </mxCell>
        <mxCell id="qVUILYzi2cgCOJXywEAA-26" style="shape=partialRectangle;overflow=hidden;connectable=0;fillColor=none;top=0;left=0;bottom=0;right=0;textShadow=0;fontColor=light-dark(#000000,#000000);strokeColor=light-dark(#000000,#000000);rounded=1;" vertex="1" parent="qVUILYzi2cgCOJXywEAA-25">
          <mxGeometry width="30" height="30" as="geometry">
            <mxRectangle width="30" height="30" as="alternateBounds" />
          </mxGeometry>
        </mxCell>
        <mxCell id="qVUILYzi2cgCOJXywEAA-27" value="location" style="shape=partialRectangle;overflow=hidden;connectable=0;fillColor=none;top=0;left=0;bottom=0;right=0;align=left;spacingLeft=6;textShadow=0;fontColor=light-dark(#000000,#000000);strokeColor=light-dark(#000000,#000000);rounded=1;" vertex="1" parent="qVUILYzi2cgCOJXywEAA-25">
          <mxGeometry x="30" width="220" height="30" as="geometry">
            <mxRectangle width="220" height="30" as="alternateBounds" />
          </mxGeometry>
        </mxCell>
        <mxCell id="qVUILYzi2cgCOJXywEAA-13" style="shape=partialRectangle;collapsible=0;dropTarget=0;pointerEvents=0;fillColor=none;points=[[0,0.5],[1,0.5]];portConstraint=eastwest;top=0;left=0;right=0;bottom=0;textShadow=0;fontColor=light-dark(#000000,#000000);strokeColor=light-dark(#000000,#000000);rounded=1;" vertex="1" parent="C-vyLk0tnHw3VtMMgP7b-2">
          <mxGeometry y="210" width="250" height="30" as="geometry" />
        </mxCell>
        <mxCell id="qVUILYzi2cgCOJXywEAA-14" style="shape=partialRectangle;overflow=hidden;connectable=0;fillColor=none;top=0;left=0;bottom=0;right=0;textShadow=0;fontColor=light-dark(#000000,#000000);strokeColor=light-dark(#000000,#000000);rounded=1;" vertex="1" parent="qVUILYzi2cgCOJXywEAA-13">
          <mxGeometry width="30" height="30" as="geometry">
            <mxRectangle width="30" height="30" as="alternateBounds" />
          </mxGeometry>
        </mxCell>
        <mxCell id="qVUILYzi2cgCOJXywEAA-15" value="required_items" style="shape=partialRectangle;overflow=hidden;connectable=0;fillColor=none;top=0;left=0;bottom=0;right=0;align=left;spacingLeft=6;textShadow=0;fontColor=light-dark(#000000,#000000);strokeColor=light-dark(#000000,#000000);rounded=1;" vertex="1" parent="qVUILYzi2cgCOJXywEAA-13">
          <mxGeometry x="30" width="220" height="30" as="geometry">
            <mxRectangle width="220" height="30" as="alternateBounds" />
          </mxGeometry>
        </mxCell>
        <mxCell id="qVUILYzi2cgCOJXywEAA-16" style="shape=partialRectangle;collapsible=0;dropTarget=0;pointerEvents=0;fillColor=none;points=[[0,0.5],[1,0.5]];portConstraint=eastwest;top=0;left=0;right=0;bottom=0;textShadow=0;fontColor=light-dark(#000000,#000000);strokeColor=light-dark(#000000,#000000);rounded=1;" vertex="1" parent="C-vyLk0tnHw3VtMMgP7b-2">
          <mxGeometry y="240" width="250" height="30" as="geometry" />
        </mxCell>
        <mxCell id="qVUILYzi2cgCOJXywEAA-17" style="shape=partialRectangle;overflow=hidden;connectable=0;fillColor=none;top=0;left=0;bottom=0;right=0;textShadow=0;fontColor=light-dark(#000000,#000000);strokeColor=light-dark(#000000,#000000);rounded=1;" vertex="1" parent="qVUILYzi2cgCOJXywEAA-16">
          <mxGeometry width="30" height="30" as="geometry">
            <mxRectangle width="30" height="30" as="alternateBounds" />
          </mxGeometry>
        </mxCell>
        <mxCell id="qVUILYzi2cgCOJXywEAA-18" value="special_notes" style="shape=partialRectangle;overflow=hidden;connectable=0;fillColor=none;top=0;left=0;bottom=0;right=0;align=left;spacingLeft=6;textShadow=0;fontColor=light-dark(#000000,#000000);strokeColor=light-dark(#000000,#000000);rounded=1;" vertex="1" parent="qVUILYzi2cgCOJXywEAA-16">
          <mxGeometry x="30" width="220" height="30" as="geometry">
            <mxRectangle width="220" height="30" as="alternateBounds" />
          </mxGeometry>
        </mxCell>
        <mxCell id="C-vyLk0tnHw3VtMMgP7b-9" value="" style="shape=partialRectangle;collapsible=0;dropTarget=0;pointerEvents=0;fillColor=none;points=[[0,0.5],[1,0.5]];portConstraint=eastwest;top=0;left=0;right=0;bottom=0;textShadow=0;fontColor=light-dark(#000000,#000000);strokeColor=light-dark(#000000,#000000);rounded=1;" parent="C-vyLk0tnHw3VtMMgP7b-2" vertex="1">
          <mxGeometry y="270" width="250" height="30" as="geometry" />
        </mxCell>
        <mxCell id="C-vyLk0tnHw3VtMMgP7b-10" value="" style="shape=partialRectangle;overflow=hidden;connectable=0;fillColor=none;top=0;left=0;bottom=0;right=0;textShadow=0;fontColor=light-dark(#000000,#000000);strokeColor=light-dark(#000000,#000000);rounded=1;" parent="C-vyLk0tnHw3VtMMgP7b-9" vertex="1">
          <mxGeometry width="30" height="30" as="geometry">
            <mxRectangle width="30" height="30" as="alternateBounds" />
          </mxGeometry>
        </mxCell>
        <mxCell id="C-vyLk0tnHw3VtMMgP7b-11" value="description" style="shape=partialRectangle;overflow=hidden;connectable=0;fillColor=none;top=0;left=0;bottom=0;right=0;align=left;spacingLeft=6;textShadow=0;fontColor=light-dark(#000000,#000000);strokeColor=light-dark(#000000,#000000);rounded=1;" parent="C-vyLk0tnHw3VtMMgP7b-9" vertex="1">
          <mxGeometry x="30" width="220" height="30" as="geometry">
            <mxRectangle width="220" height="30" as="alternateBounds" />
          </mxGeometry>
        </mxCell>
        <mxCell id="2w68A3cYPR3M8UwBagFj-23" style="shape=partialRectangle;collapsible=0;dropTarget=0;pointerEvents=0;fillColor=none;points=[[0,0.5],[1,0.5]];portConstraint=eastwest;top=0;left=0;right=0;bottom=0;textShadow=0;fontColor=light-dark(#000000,#000000);strokeColor=light-dark(#000000,#000000);rounded=1;" parent="C-vyLk0tnHw3VtMMgP7b-2" vertex="1">
          <mxGeometry y="300" width="250" height="30" as="geometry" />
        </mxCell>
        <mxCell id="2w68A3cYPR3M8UwBagFj-24" style="shape=partialRectangle;overflow=hidden;connectable=0;fillColor=none;top=0;left=0;bottom=0;right=0;textShadow=0;fontColor=light-dark(#000000,#000000);strokeColor=light-dark(#000000,#000000);rounded=1;" parent="2w68A3cYPR3M8UwBagFj-23" vertex="1">
          <mxGeometry width="30" height="30" as="geometry">
            <mxRectangle width="30" height="30" as="alternateBounds" />
          </mxGeometry>
        </mxCell>
        <mxCell id="2w68A3cYPR3M8UwBagFj-25" value="capacity" style="shape=partialRectangle;overflow=hidden;connectable=0;fillColor=none;top=0;left=0;bottom=0;right=0;align=left;spacingLeft=6;textShadow=0;fontColor=light-dark(#000000,#000000);strokeColor=light-dark(#000000,#000000);rounded=1;" parent="2w68A3cYPR3M8UwBagFj-23" vertex="1">
          <mxGeometry x="30" width="220" height="30" as="geometry">
            <mxRectangle width="220" height="30" as="alternateBounds" />
          </mxGeometry>
        </mxCell>
        <mxCell id="qVUILYzi2cgCOJXywEAA-31" style="shape=partialRectangle;collapsible=0;dropTarget=0;pointerEvents=0;fillColor=none;points=[[0,0.5],[1,0.5]];portConstraint=eastwest;top=0;left=0;right=0;bottom=0;textShadow=0;fontColor=light-dark(#000000,#000000);strokeColor=light-dark(#000000,#000000);rounded=1;" vertex="1" parent="C-vyLk0tnHw3VtMMgP7b-2">
          <mxGeometry y="330" width="250" height="30" as="geometry" />
        </mxCell>
        <mxCell id="qVUILYzi2cgCOJXywEAA-32" style="shape=partialRectangle;overflow=hidden;connectable=0;fillColor=none;top=0;left=0;bottom=0;right=0;textShadow=0;fontColor=light-dark(#000000,#000000);strokeColor=light-dark(#000000,#000000);rounded=1;" vertex="1" parent="qVUILYzi2cgCOJXywEAA-31">
          <mxGeometry width="30" height="30" as="geometry">
            <mxRectangle width="30" height="30" as="alternateBounds" />
          </mxGeometry>
        </mxCell>
        <mxCell id="qVUILYzi2cgCOJXywEAA-33" value="deadline" style="shape=partialRectangle;overflow=hidden;connectable=0;fillColor=none;top=0;left=0;bottom=0;right=0;align=left;spacingLeft=6;textShadow=0;fontColor=light-dark(#000000,#000000);strokeColor=light-dark(#000000,#000000);rounded=1;" vertex="1" parent="qVUILYzi2cgCOJXywEAA-31">
          <mxGeometry x="30" width="220" height="30" as="geometry">
            <mxRectangle width="220" height="30" as="alternateBounds" />
          </mxGeometry>
        </mxCell>
        <mxCell id="90S8i4eGVS4S6o-vOTUU-30" style="shape=partialRectangle;collapsible=0;dropTarget=0;pointerEvents=0;fillColor=none;points=[[0,0.5],[1,0.5]];portConstraint=eastwest;top=0;left=0;right=0;bottom=0;textShadow=0;fontColor=light-dark(#000000,#000000);strokeColor=light-dark(#000000,#000000);rounded=1;" parent="C-vyLk0tnHw3VtMMgP7b-2" vertex="1">
          <mxGeometry y="360" width="250" height="30" as="geometry" />
        </mxCell>
        <mxCell id="90S8i4eGVS4S6o-vOTUU-31" style="shape=partialRectangle;overflow=hidden;connectable=0;fillColor=none;top=0;left=0;bottom=0;right=0;textShadow=0;fontColor=light-dark(#000000,#000000);strokeColor=light-dark(#000000,#000000);rounded=1;" parent="90S8i4eGVS4S6o-vOTUU-30" vertex="1">
          <mxGeometry width="30" height="30" as="geometry">
            <mxRectangle width="30" height="30" as="alternateBounds" />
          </mxGeometry>
        </mxCell>
        <mxCell id="90S8i4eGVS4S6o-vOTUU-32" value="point_reward" style="shape=partialRectangle;overflow=hidden;connectable=0;fillColor=none;top=0;left=0;bottom=0;right=0;align=left;spacingLeft=6;textShadow=0;fontColor=light-dark(#000000,#000000);strokeColor=light-dark(#000000,#000000);rounded=1;" parent="90S8i4eGVS4S6o-vOTUU-30" vertex="1">
          <mxGeometry x="30" width="220" height="30" as="geometry">
            <mxRectangle width="220" height="30" as="alternateBounds" />
          </mxGeometry>
        </mxCell>
        <mxCell id="90S8i4eGVS4S6o-vOTUU-66" style="shape=partialRectangle;collapsible=0;dropTarget=0;pointerEvents=0;fillColor=none;points=[[0,0.5],[1,0.5]];portConstraint=eastwest;top=0;left=0;right=0;bottom=0;textShadow=0;fontColor=light-dark(#000000,#000000);strokeColor=light-dark(#000000,#000000);rounded=1;" parent="C-vyLk0tnHw3VtMMgP7b-2" vertex="1">
          <mxGeometry y="390" width="250" height="30" as="geometry" />
        </mxCell>
        <mxCell id="90S8i4eGVS4S6o-vOTUU-67" style="shape=partialRectangle;overflow=hidden;connectable=0;fillColor=none;top=0;left=0;bottom=0;right=0;textShadow=0;fontColor=light-dark(#000000,#000000);strokeColor=light-dark(#000000,#000000);rounded=1;" parent="90S8i4eGVS4S6o-vOTUU-66" vertex="1">
          <mxGeometry width="30" height="30" as="geometry">
            <mxRectangle width="30" height="30" as="alternateBounds" />
          </mxGeometry>
        </mxCell>
        <mxCell id="90S8i4eGVS4S6o-vOTUU-68" value="privilege_allowed" style="shape=partialRectangle;overflow=hidden;connectable=0;fillColor=none;top=0;left=0;bottom=0;right=0;align=left;spacingLeft=6;textShadow=0;fontColor=light-dark(#000000,#000000);strokeColor=light-dark(#000000,#000000);rounded=1;" parent="90S8i4eGVS4S6o-vOTUU-66" vertex="1">
          <mxGeometry x="30" width="220" height="30" as="geometry">
            <mxRectangle width="220" height="30" as="alternateBounds" />
          </mxGeometry>
        </mxCell>
        <mxCell id="qVUILYzi2cgCOJXywEAA-19" style="shape=partialRectangle;collapsible=0;dropTarget=0;pointerEvents=0;fillColor=none;points=[[0,0.5],[1,0.5]];portConstraint=eastwest;top=0;left=0;right=0;bottom=0;textShadow=0;fontColor=light-dark(#000000,#000000);strokeColor=light-dark(#000000,#000000);rounded=1;" vertex="1" parent="C-vyLk0tnHw3VtMMgP7b-2">
          <mxGeometry y="420" width="250" height="30" as="geometry" />
        </mxCell>
        <mxCell id="qVUILYzi2cgCOJXywEAA-20" style="shape=partialRectangle;overflow=hidden;connectable=0;fillColor=none;top=0;left=0;bottom=0;right=0;textShadow=0;fontColor=light-dark(#000000,#000000);strokeColor=light-dark(#000000,#000000);rounded=1;" vertex="1" parent="qVUILYzi2cgCOJXywEAA-19">
          <mxGeometry width="30" height="30" as="geometry">
            <mxRectangle width="30" height="30" as="alternateBounds" />
          </mxGeometry>
        </mxCell>
        <mxCell id="qVUILYzi2cgCOJXywEAA-21" value="deadline" style="shape=partialRectangle;overflow=hidden;connectable=0;fillColor=none;top=0;left=0;bottom=0;right=0;align=left;spacingLeft=6;textShadow=0;fontColor=light-dark(#000000,#000000);strokeColor=light-dark(#000000,#000000);rounded=1;" vertex="1" parent="qVUILYzi2cgCOJXywEAA-19">
          <mxGeometry x="30" width="220" height="30" as="geometry">
            <mxRectangle width="220" height="30" as="alternateBounds" />
          </mxGeometry>
        </mxCell>
        <mxCell id="90S8i4eGVS4S6o-vOTUU-36" style="shape=partialRectangle;collapsible=0;dropTarget=0;pointerEvents=0;fillColor=none;points=[[0,0.5],[1,0.5]];portConstraint=eastwest;top=0;left=0;right=0;bottom=0;textShadow=0;fontColor=light-dark(#000000,#000000);strokeColor=light-dark(#000000,#000000);rounded=1;" parent="C-vyLk0tnHw3VtMMgP7b-2" vertex="1">
          <mxGeometry y="450" width="250" height="30" as="geometry" />
        </mxCell>
        <mxCell id="90S8i4eGVS4S6o-vOTUU-37" value="FK" style="shape=partialRectangle;overflow=hidden;connectable=0;fillColor=none;top=0;left=0;bottom=0;right=0;textShadow=0;fontColor=light-dark(#000000,#000000);strokeColor=light-dark(#000000,#000000);rounded=1;" parent="90S8i4eGVS4S6o-vOTUU-36" vertex="1">
          <mxGeometry width="30" height="30" as="geometry">
            <mxRectangle width="30" height="30" as="alternateBounds" />
          </mxGeometry>
        </mxCell>
        <mxCell id="90S8i4eGVS4S6o-vOTUU-38" value="created_by" style="shape=partialRectangle;overflow=hidden;connectable=0;fillColor=none;top=0;left=0;bottom=0;right=0;align=left;spacingLeft=6;textShadow=0;fontColor=light-dark(#000000,#000000);strokeColor=light-dark(#000000,#000000);rounded=1;" parent="90S8i4eGVS4S6o-vOTUU-36" vertex="1">
          <mxGeometry x="30" width="220" height="30" as="geometry">
            <mxRectangle width="220" height="30" as="alternateBounds" />
          </mxGeometry>
        </mxCell>
        <mxCell id="KlMqCPawbF4SIBuH-tO9-7" style="shape=partialRectangle;collapsible=0;dropTarget=0;pointerEvents=0;fillColor=none;points=[[0,0.5],[1,0.5]];portConstraint=eastwest;top=0;left=0;right=0;bottom=0;textShadow=0;fontColor=light-dark(#000000,#000000);strokeColor=light-dark(#000000,#000000);rounded=1;" parent="C-vyLk0tnHw3VtMMgP7b-2" vertex="1">
          <mxGeometry y="480" width="250" height="30" as="geometry" />
        </mxCell>
        <mxCell id="KlMqCPawbF4SIBuH-tO9-8" style="shape=partialRectangle;overflow=hidden;connectable=0;fillColor=none;top=0;left=0;bottom=0;right=0;textShadow=0;fontColor=light-dark(#000000,#000000);strokeColor=light-dark(#000000,#000000);rounded=1;" parent="KlMqCPawbF4SIBuH-tO9-7" vertex="1">
          <mxGeometry width="30" height="30" as="geometry">
            <mxRectangle width="30" height="30" as="alternateBounds" />
          </mxGeometry>
        </mxCell>
        <mxCell id="KlMqCPawbF4SIBuH-tO9-9" value="created_at" style="shape=partialRectangle;overflow=hidden;connectable=0;fillColor=none;top=0;left=0;bottom=0;right=0;align=left;spacingLeft=6;textShadow=0;fontColor=light-dark(#000000,#000000);strokeColor=light-dark(#000000,#000000);rounded=1;" parent="KlMqCPawbF4SIBuH-tO9-7" vertex="1">
          <mxGeometry x="30" width="220" height="30" as="geometry">
            <mxRectangle width="220" height="30" as="alternateBounds" />
          </mxGeometry>
        </mxCell>
        <mxCell id="C-vyLk0tnHw3VtMMgP7b-13" value="event_applications" style="shape=table;startSize=30;container=1;collapsible=1;childLayout=tableLayout;fixedRows=1;rowLines=0;fontStyle=1;align=center;resizeLast=1;textShadow=0;fontColor=light-dark(#000000,#000000);strokeColor=light-dark(#000000,#000000);fillColor=light-dark(#FFFFFF,#D4E1F5);rounded=1;" parent="1" vertex="1">
          <mxGeometry x="460" y="320" width="250" height="250" as="geometry" />
        </mxCell>
        <mxCell id="C-vyLk0tnHw3VtMMgP7b-14" value="" style="shape=partialRectangle;collapsible=0;dropTarget=0;pointerEvents=0;fillColor=none;points=[[0,0.5],[1,0.5]];portConstraint=eastwest;top=0;left=0;right=0;bottom=1;textShadow=0;fontColor=light-dark(#000000,#000000);strokeColor=light-dark(#000000,#000000);rounded=1;" parent="C-vyLk0tnHw3VtMMgP7b-13" vertex="1">
          <mxGeometry y="30" width="250" height="30" as="geometry" />
        </mxCell>
        <mxCell id="C-vyLk0tnHw3VtMMgP7b-15" value="PK" style="shape=partialRectangle;overflow=hidden;connectable=0;fillColor=none;top=0;left=0;bottom=0;right=0;fontStyle=1;textShadow=0;fontColor=light-dark(#000000,#000000);strokeColor=light-dark(#000000,#000000);rounded=1;" parent="C-vyLk0tnHw3VtMMgP7b-14" vertex="1">
          <mxGeometry width="30" height="30" as="geometry">
            <mxRectangle width="30" height="30" as="alternateBounds" />
          </mxGeometry>
        </mxCell>
        <mxCell id="C-vyLk0tnHw3VtMMgP7b-16" value="id" style="shape=partialRectangle;overflow=hidden;connectable=0;fillColor=none;top=0;left=0;bottom=0;right=0;align=left;spacingLeft=6;fontStyle=5;textShadow=0;fontColor=light-dark(#000000,#000000);strokeColor=light-dark(#000000,#000000);rounded=1;" parent="C-vyLk0tnHw3VtMMgP7b-14" vertex="1">
          <mxGeometry x="30" width="220" height="30" as="geometry">
            <mxRectangle width="220" height="30" as="alternateBounds" />
          </mxGeometry>
        </mxCell>
        <mxCell id="C-vyLk0tnHw3VtMMgP7b-17" value="" style="shape=partialRectangle;collapsible=0;dropTarget=0;pointerEvents=0;fillColor=none;points=[[0,0.5],[1,0.5]];portConstraint=eastwest;top=0;left=0;right=0;bottom=0;textShadow=0;fontColor=light-dark(#000000,#000000);strokeColor=light-dark(#000000,#000000);rounded=1;" parent="C-vyLk0tnHw3VtMMgP7b-13" vertex="1">
          <mxGeometry y="60" width="250" height="30" as="geometry" />
        </mxCell>
        <mxCell id="C-vyLk0tnHw3VtMMgP7b-18" value="FK" style="shape=partialRectangle;overflow=hidden;connectable=0;fillColor=none;top=0;left=0;bottom=0;right=0;textShadow=0;fontColor=light-dark(#000000,#000000);strokeColor=light-dark(#000000,#000000);rounded=1;" parent="C-vyLk0tnHw3VtMMgP7b-17" vertex="1">
          <mxGeometry width="30" height="30" as="geometry">
            <mxRectangle width="30" height="30" as="alternateBounds" />
          </mxGeometry>
        </mxCell>
        <mxCell id="C-vyLk0tnHw3VtMMgP7b-19" value="event_id" style="shape=partialRectangle;overflow=hidden;connectable=0;fillColor=none;top=0;left=0;bottom=0;right=0;align=left;spacingLeft=6;textShadow=0;fontColor=light-dark(#000000,#000000);strokeColor=light-dark(#000000,#000000);rounded=1;" parent="C-vyLk0tnHw3VtMMgP7b-17" vertex="1">
          <mxGeometry x="30" width="220" height="30" as="geometry">
            <mxRectangle width="220" height="30" as="alternateBounds" />
          </mxGeometry>
        </mxCell>
        <mxCell id="C-vyLk0tnHw3VtMMgP7b-20" value="" style="shape=partialRectangle;collapsible=0;dropTarget=0;pointerEvents=0;fillColor=none;points=[[0,0.5],[1,0.5]];portConstraint=eastwest;top=0;left=0;right=0;bottom=0;textShadow=0;fontColor=light-dark(#000000,#000000);strokeColor=light-dark(#000000,#000000);rounded=1;" parent="C-vyLk0tnHw3VtMMgP7b-13" vertex="1">
          <mxGeometry y="90" width="250" height="30" as="geometry" />
        </mxCell>
        <mxCell id="C-vyLk0tnHw3VtMMgP7b-21" value="FK" style="shape=partialRectangle;overflow=hidden;connectable=0;fillColor=none;top=0;left=0;bottom=0;right=0;textShadow=0;fontColor=light-dark(#000000,#000000);strokeColor=light-dark(#000000,#000000);rounded=1;" parent="C-vyLk0tnHw3VtMMgP7b-20" vertex="1">
          <mxGeometry width="30" height="30" as="geometry">
            <mxRectangle width="30" height="30" as="alternateBounds" />
          </mxGeometry>
        </mxCell>
        <mxCell id="C-vyLk0tnHw3VtMMgP7b-22" value="user_id" style="shape=partialRectangle;overflow=hidden;connectable=0;fillColor=none;top=0;left=0;bottom=0;right=0;align=left;spacingLeft=6;textShadow=0;fontColor=light-dark(#000000,#000000);strokeColor=light-dark(#000000,#000000);rounded=1;" parent="C-vyLk0tnHw3VtMMgP7b-20" vertex="1">
          <mxGeometry x="30" width="220" height="30" as="geometry">
            <mxRectangle width="220" height="30" as="alternateBounds" />
          </mxGeometry>
        </mxCell>
        <mxCell id="90S8i4eGVS4S6o-vOTUU-43" style="shape=partialRectangle;collapsible=0;dropTarget=0;pointerEvents=0;fillColor=none;points=[[0,0.5],[1,0.5]];portConstraint=eastwest;top=0;left=0;right=0;bottom=0;textShadow=0;fontColor=light-dark(#000000,#000000);strokeColor=light-dark(#000000,#000000);rounded=1;" parent="C-vyLk0tnHw3VtMMgP7b-13" vertex="1">
          <mxGeometry y="120" width="250" height="30" as="geometry" />
        </mxCell>
        <mxCell id="90S8i4eGVS4S6o-vOTUU-44" value="" style="shape=partialRectangle;overflow=hidden;connectable=0;fillColor=none;top=0;left=0;bottom=0;right=0;textShadow=0;fontColor=light-dark(#000000,#000000);strokeColor=light-dark(#000000,#000000);rounded=1;" parent="90S8i4eGVS4S6o-vOTUU-43" vertex="1">
          <mxGeometry width="30" height="30" as="geometry">
            <mxRectangle width="30" height="30" as="alternateBounds" />
          </mxGeometry>
        </mxCell>
        <mxCell id="90S8i4eGVS4S6o-vOTUU-45" value="slot_id" style="shape=partialRectangle;overflow=hidden;connectable=0;fillColor=none;top=0;left=0;bottom=0;right=0;align=left;spacingLeft=6;textShadow=0;fontColor=light-dark(#000000,#000000);strokeColor=light-dark(#000000,#000000);rounded=1;" parent="90S8i4eGVS4S6o-vOTUU-43" vertex="1">
          <mxGeometry x="30" width="220" height="30" as="geometry">
            <mxRectangle width="220" height="30" as="alternateBounds" />
          </mxGeometry>
        </mxCell>
        <mxCell id="2w68A3cYPR3M8UwBagFj-38" style="shape=partialRectangle;collapsible=0;dropTarget=0;pointerEvents=0;fillColor=none;points=[[0,0.5],[1,0.5]];portConstraint=eastwest;top=0;left=0;right=0;bottom=0;textShadow=0;fontColor=light-dark(#000000,#000000);strokeColor=light-dark(#000000,#000000);rounded=1;" parent="C-vyLk0tnHw3VtMMgP7b-13" vertex="1">
          <mxGeometry y="150" width="250" height="30" as="geometry" />
        </mxCell>
        <mxCell id="2w68A3cYPR3M8UwBagFj-39" style="shape=partialRectangle;overflow=hidden;connectable=0;fillColor=none;top=0;left=0;bottom=0;right=0;textShadow=0;fontColor=light-dark(#000000,#000000);strokeColor=light-dark(#000000,#000000);rounded=1;" parent="2w68A3cYPR3M8UwBagFj-38" vertex="1">
          <mxGeometry width="30" height="30" as="geometry">
            <mxRectangle width="30" height="30" as="alternateBounds" />
          </mxGeometry>
        </mxCell>
        <mxCell id="2w68A3cYPR3M8UwBagFj-40" value="status" style="shape=partialRectangle;overflow=hidden;connectable=0;fillColor=none;top=0;left=0;bottom=0;right=0;align=left;spacingLeft=6;textShadow=0;fontColor=light-dark(#000000,#000000);strokeColor=light-dark(#000000,#000000);rounded=1;" parent="2w68A3cYPR3M8UwBagFj-38" vertex="1">
          <mxGeometry x="30" width="220" height="30" as="geometry">
            <mxRectangle width="220" height="30" as="alternateBounds" />
          </mxGeometry>
        </mxCell>
        <mxCell id="2w68A3cYPR3M8UwBagFj-35" style="shape=partialRectangle;collapsible=0;dropTarget=0;pointerEvents=0;fillColor=none;points=[[0,0.5],[1,0.5]];portConstraint=eastwest;top=0;left=0;right=0;bottom=0;textShadow=0;fontColor=light-dark(#000000,#000000);strokeColor=light-dark(#000000,#000000);rounded=1;" parent="C-vyLk0tnHw3VtMMgP7b-13" vertex="1">
          <mxGeometry y="180" width="250" height="30" as="geometry" />
        </mxCell>
        <mxCell id="2w68A3cYPR3M8UwBagFj-36" style="shape=partialRectangle;overflow=hidden;connectable=0;fillColor=none;top=0;left=0;bottom=0;right=0;textShadow=0;fontColor=light-dark(#000000,#000000);strokeColor=light-dark(#000000,#000000);rounded=1;" parent="2w68A3cYPR3M8UwBagFj-35" vertex="1">
          <mxGeometry width="30" height="30" as="geometry">
            <mxRectangle width="30" height="30" as="alternateBounds" />
          </mxGeometry>
        </mxCell>
        <mxCell id="2w68A3cYPR3M8UwBagFj-37" value="applied_at" style="shape=partialRectangle;overflow=hidden;connectable=0;fillColor=none;top=0;left=0;bottom=0;right=0;align=left;spacingLeft=6;textShadow=0;fontColor=light-dark(#000000,#000000);strokeColor=light-dark(#000000,#000000);rounded=1;" parent="2w68A3cYPR3M8UwBagFj-35" vertex="1">
          <mxGeometry x="30" width="220" height="30" as="geometry">
            <mxRectangle width="220" height="30" as="alternateBounds" />
          </mxGeometry>
        </mxCell>
        <mxCell id="KlMqCPawbF4SIBuH-tO9-13" style="shape=partialRectangle;collapsible=0;dropTarget=0;pointerEvents=0;fillColor=none;points=[[0,0.5],[1,0.5]];portConstraint=eastwest;top=0;left=0;right=0;bottom=0;textShadow=0;fontColor=light-dark(#000000,#000000);strokeColor=light-dark(#000000,#000000);rounded=1;" parent="C-vyLk0tnHw3VtMMgP7b-13" vertex="1">
          <mxGeometry y="210" width="250" height="30" as="geometry" />
        </mxCell>
        <mxCell id="KlMqCPawbF4SIBuH-tO9-14" style="shape=partialRectangle;overflow=hidden;connectable=0;fillColor=none;top=0;left=0;bottom=0;right=0;textShadow=0;fontColor=light-dark(#000000,#000000);strokeColor=light-dark(#000000,#000000);rounded=1;" parent="KlMqCPawbF4SIBuH-tO9-13" vertex="1">
          <mxGeometry width="30" height="30" as="geometry">
            <mxRectangle width="30" height="30" as="alternateBounds" />
          </mxGeometry>
        </mxCell>
        <mxCell id="KlMqCPawbF4SIBuH-tO9-15" value="created_at" style="shape=partialRectangle;overflow=hidden;connectable=0;fillColor=none;top=0;left=0;bottom=0;right=0;align=left;spacingLeft=6;textShadow=0;fontColor=light-dark(#000000,#000000);strokeColor=light-dark(#000000,#000000);rounded=1;" parent="KlMqCPawbF4SIBuH-tO9-13" vertex="1">
          <mxGeometry x="30" width="220" height="30" as="geometry">
            <mxRectangle width="220" height="30" as="alternateBounds" />
          </mxGeometry>
        </mxCell>
        <mxCell id="C-vyLk0tnHw3VtMMgP7b-23" value="users" style="shape=table;startSize=30;container=1;collapsible=1;childLayout=tableLayout;fixedRows=1;rowLines=0;fontStyle=1;align=center;resizeLast=1;textShadow=0;fontColor=light-dark(#000000,#000000);strokeColor=light-dark(#000000,#000000);labelBackgroundColor=none;fillColor=light-dark(#FFFFFF,#EA6B66);rounded=1;" parent="1" vertex="1">
          <mxGeometry x="-410" y="40" width="250" height="310" as="geometry" />
        </mxCell>
        <mxCell id="C-vyLk0tnHw3VtMMgP7b-24" value="" style="shape=partialRectangle;collapsible=0;dropTarget=0;pointerEvents=0;fillColor=none;points=[[0,0.5],[1,0.5]];portConstraint=eastwest;top=0;left=0;right=0;bottom=1;textShadow=0;fontColor=light-dark(#000000,#000000);strokeColor=light-dark(#000000,#000000);rounded=1;" parent="C-vyLk0tnHw3VtMMgP7b-23" vertex="1">
          <mxGeometry y="30" width="250" height="30" as="geometry" />
        </mxCell>
        <mxCell id="C-vyLk0tnHw3VtMMgP7b-25" value="PK" style="shape=partialRectangle;overflow=hidden;connectable=0;fillColor=none;top=0;left=0;bottom=0;right=0;fontStyle=1;textShadow=0;fontColor=light-dark(#000000,#000000);strokeColor=light-dark(#000000,#000000);rounded=1;" parent="C-vyLk0tnHw3VtMMgP7b-24" vertex="1">
          <mxGeometry width="30" height="30" as="geometry">
            <mxRectangle width="30" height="30" as="alternateBounds" />
          </mxGeometry>
        </mxCell>
        <mxCell id="C-vyLk0tnHw3VtMMgP7b-26" value="id" style="shape=partialRectangle;overflow=hidden;connectable=0;fillColor=none;top=0;left=0;bottom=0;right=0;align=left;spacingLeft=6;fontStyle=5;textShadow=0;fontColor=light-dark(#000000,#000000);strokeColor=light-dark(#000000,#000000);rounded=1;" parent="C-vyLk0tnHw3VtMMgP7b-24" vertex="1">
          <mxGeometry x="30" width="220" height="30" as="geometry">
            <mxRectangle width="220" height="30" as="alternateBounds" />
          </mxGeometry>
        </mxCell>
        <mxCell id="90S8i4eGVS4S6o-vOTUU-17" style="shape=partialRectangle;collapsible=0;dropTarget=0;pointerEvents=0;fillColor=none;points=[[0,0.5],[1,0.5]];portConstraint=eastwest;top=0;left=0;right=0;bottom=0;textShadow=0;fontColor=light-dark(#000000,#000000);strokeColor=light-dark(#000000,#000000);rounded=1;" parent="C-vyLk0tnHw3VtMMgP7b-23" vertex="1">
          <mxGeometry y="60" width="250" height="30" as="geometry" />
        </mxCell>
        <mxCell id="90S8i4eGVS4S6o-vOTUU-18" value="FK" style="shape=partialRectangle;overflow=hidden;connectable=0;fillColor=none;top=0;left=0;bottom=0;right=0;textShadow=0;fontColor=light-dark(#000000,#000000);strokeColor=light-dark(#000000,#000000);rounded=1;" parent="90S8i4eGVS4S6o-vOTUU-17" vertex="1">
          <mxGeometry width="30" height="30" as="geometry">
            <mxRectangle width="30" height="30" as="alternateBounds" />
          </mxGeometry>
        </mxCell>
        <mxCell id="90S8i4eGVS4S6o-vOTUU-19" value="nursery_id" style="shape=partialRectangle;overflow=hidden;connectable=0;fillColor=none;top=0;left=0;bottom=0;right=0;align=left;spacingLeft=6;textShadow=0;fontColor=light-dark(#000000,#000000);strokeColor=light-dark(#000000,#000000);rounded=1;" parent="90S8i4eGVS4S6o-vOTUU-17" vertex="1">
          <mxGeometry x="30" width="220" height="30" as="geometry">
            <mxRectangle width="220" height="30" as="alternateBounds" />
          </mxGeometry>
        </mxCell>
        <mxCell id="C-vyLk0tnHw3VtMMgP7b-27" value="" style="shape=partialRectangle;collapsible=0;dropTarget=0;pointerEvents=0;fillColor=none;points=[[0,0.5],[1,0.5]];portConstraint=eastwest;top=0;left=0;right=0;bottom=0;textShadow=0;fontColor=light-dark(#000000,#000000);strokeColor=light-dark(#000000,#000000);rounded=1;" parent="C-vyLk0tnHw3VtMMgP7b-23" vertex="1">
          <mxGeometry y="90" width="250" height="30" as="geometry" />
        </mxCell>
        <mxCell id="C-vyLk0tnHw3VtMMgP7b-28" value="" style="shape=partialRectangle;overflow=hidden;connectable=0;fillColor=none;top=0;left=0;bottom=0;right=0;textShadow=0;fontColor=light-dark(#000000,#000000);strokeColor=light-dark(#000000,#000000);rounded=1;" parent="C-vyLk0tnHw3VtMMgP7b-27" vertex="1">
          <mxGeometry width="30" height="30" as="geometry">
            <mxRectangle width="30" height="30" as="alternateBounds" />
          </mxGeometry>
        </mxCell>
        <mxCell id="C-vyLk0tnHw3VtMMgP7b-29" value="name" style="shape=partialRectangle;overflow=hidden;connectable=0;fillColor=none;top=0;left=0;bottom=0;right=0;align=left;spacingLeft=6;textShadow=0;fontColor=light-dark(#000000,#000000);strokeColor=light-dark(#000000,#000000);rounded=1;" parent="C-vyLk0tnHw3VtMMgP7b-27" vertex="1">
          <mxGeometry x="30" width="220" height="30" as="geometry">
            <mxRectangle width="220" height="30" as="alternateBounds" />
          </mxGeometry>
        </mxCell>
        <mxCell id="2w68A3cYPR3M8UwBagFj-5" style="shape=partialRectangle;collapsible=0;dropTarget=0;pointerEvents=0;fillColor=none;points=[[0,0.5],[1,0.5]];portConstraint=eastwest;top=0;left=0;right=0;bottom=0;textShadow=0;fontColor=light-dark(#000000,#000000);strokeColor=light-dark(#000000,#000000);rounded=1;" parent="C-vyLk0tnHw3VtMMgP7b-23" vertex="1">
          <mxGeometry y="120" width="250" height="30" as="geometry" />
        </mxCell>
        <mxCell id="2w68A3cYPR3M8UwBagFj-6" style="shape=partialRectangle;overflow=hidden;connectable=0;fillColor=none;top=0;left=0;bottom=0;right=0;textShadow=0;fontColor=light-dark(#000000,#000000);strokeColor=light-dark(#000000,#000000);rounded=1;" parent="2w68A3cYPR3M8UwBagFj-5" vertex="1">
          <mxGeometry width="30" height="30" as="geometry">
            <mxRectangle width="30" height="30" as="alternateBounds" />
          </mxGeometry>
        </mxCell>
        <mxCell id="2w68A3cYPR3M8UwBagFj-7" value="email" style="shape=partialRectangle;overflow=hidden;connectable=0;fillColor=none;top=0;left=0;bottom=0;right=0;align=left;spacingLeft=6;textShadow=0;fontColor=light-dark(#000000,#000000);strokeColor=light-dark(#000000,#000000);rounded=1;" parent="2w68A3cYPR3M8UwBagFj-5" vertex="1">
          <mxGeometry x="30" width="220" height="30" as="geometry">
            <mxRectangle width="220" height="30" as="alternateBounds" />
          </mxGeometry>
        </mxCell>
        <mxCell id="2w68A3cYPR3M8UwBagFj-8" style="shape=partialRectangle;collapsible=0;dropTarget=0;pointerEvents=0;fillColor=none;points=[[0,0.5],[1,0.5]];portConstraint=eastwest;top=0;left=0;right=0;bottom=0;textShadow=0;fontColor=light-dark(#000000,#000000);strokeColor=light-dark(#000000,#000000);rounded=1;" parent="C-vyLk0tnHw3VtMMgP7b-23" vertex="1">
          <mxGeometry y="150" width="250" height="30" as="geometry" />
        </mxCell>
        <mxCell id="2w68A3cYPR3M8UwBagFj-9" style="shape=partialRectangle;overflow=hidden;connectable=0;fillColor=none;top=0;left=0;bottom=0;right=0;textShadow=0;fontColor=light-dark(#000000,#000000);strokeColor=light-dark(#000000,#000000);rounded=1;" parent="2w68A3cYPR3M8UwBagFj-8" vertex="1">
          <mxGeometry width="30" height="30" as="geometry">
            <mxRectangle width="30" height="30" as="alternateBounds" />
          </mxGeometry>
        </mxCell>
        <mxCell id="2w68A3cYPR3M8UwBagFj-10" value="password_hash" style="shape=partialRectangle;overflow=hidden;connectable=0;fillColor=none;top=0;left=0;bottom=0;right=0;align=left;spacingLeft=6;textShadow=0;fontColor=light-dark(#000000,#000000);strokeColor=light-dark(#000000,#000000);rounded=1;" parent="2w68A3cYPR3M8UwBagFj-8" vertex="1">
          <mxGeometry x="30" width="220" height="30" as="geometry">
            <mxRectangle width="220" height="30" as="alternateBounds" />
          </mxGeometry>
        </mxCell>
        <mxCell id="2w68A3cYPR3M8UwBagFj-11" style="shape=partialRectangle;collapsible=0;dropTarget=0;pointerEvents=0;fillColor=none;points=[[0,0.5],[1,0.5]];portConstraint=eastwest;top=0;left=0;right=0;bottom=0;textShadow=0;fontColor=light-dark(#000000,#000000);strokeColor=light-dark(#000000,#000000);rounded=1;" parent="C-vyLk0tnHw3VtMMgP7b-23" vertex="1">
          <mxGeometry y="180" width="250" height="30" as="geometry" />
        </mxCell>
        <mxCell id="2w68A3cYPR3M8UwBagFj-12" style="shape=partialRectangle;overflow=hidden;connectable=0;fillColor=none;top=0;left=0;bottom=0;right=0;textShadow=0;fontColor=light-dark(#000000,#000000);strokeColor=light-dark(#000000,#000000);rounded=1;" parent="2w68A3cYPR3M8UwBagFj-11" vertex="1">
          <mxGeometry width="30" height="30" as="geometry">
            <mxRectangle width="30" height="30" as="alternateBounds" />
          </mxGeometry>
        </mxCell>
        <mxCell id="2w68A3cYPR3M8UwBagFj-13" value="role" style="shape=partialRectangle;overflow=hidden;connectable=0;fillColor=none;top=0;left=0;bottom=0;right=0;align=left;spacingLeft=6;textShadow=0;fontColor=light-dark(#000000,#000000);strokeColor=light-dark(#000000,#000000);rounded=1;" parent="2w68A3cYPR3M8UwBagFj-11" vertex="1">
          <mxGeometry x="30" width="220" height="30" as="geometry">
            <mxRectangle width="220" height="30" as="alternateBounds" />
          </mxGeometry>
        </mxCell>
        <mxCell id="2w68A3cYPR3M8UwBagFj-76" style="shape=partialRectangle;collapsible=0;dropTarget=0;pointerEvents=0;fillColor=none;points=[[0,0.5],[1,0.5]];portConstraint=eastwest;top=0;left=0;right=0;bottom=0;textShadow=0;fontColor=light-dark(#000000,#000000);strokeColor=light-dark(#000000,#000000);rounded=1;" parent="C-vyLk0tnHw3VtMMgP7b-23" vertex="1">
          <mxGeometry y="210" width="250" height="30" as="geometry" />
        </mxCell>
        <mxCell id="2w68A3cYPR3M8UwBagFj-77" style="shape=partialRectangle;overflow=hidden;connectable=0;fillColor=none;top=0;left=0;bottom=0;right=0;textShadow=0;fontColor=light-dark(#000000,#000000);strokeColor=light-dark(#000000,#000000);rounded=1;" parent="2w68A3cYPR3M8UwBagFj-76" vertex="1">
          <mxGeometry width="30" height="30" as="geometry">
            <mxRectangle width="30" height="30" as="alternateBounds" />
          </mxGeometry>
        </mxCell>
        <mxCell id="2w68A3cYPR3M8UwBagFj-78" value="is_admin" style="shape=partialRectangle;overflow=hidden;connectable=0;fillColor=none;top=0;left=0;bottom=0;right=0;align=left;spacingLeft=6;textShadow=0;fontColor=light-dark(#000000,#000000);strokeColor=light-dark(#000000,#000000);rounded=1;" parent="2w68A3cYPR3M8UwBagFj-76" vertex="1">
          <mxGeometry x="30" width="220" height="30" as="geometry">
            <mxRectangle width="220" height="30" as="alternateBounds" />
          </mxGeometry>
        </mxCell>
        <mxCell id="90S8i4eGVS4S6o-vOTUU-21" style="shape=partialRectangle;collapsible=0;dropTarget=0;pointerEvents=0;fillColor=none;points=[[0,0.5],[1,0.5]];portConstraint=eastwest;top=0;left=0;right=0;bottom=0;textShadow=0;fontColor=light-dark(#000000,#000000);strokeColor=light-dark(#000000,#000000);rounded=1;" parent="C-vyLk0tnHw3VtMMgP7b-23" vertex="1">
          <mxGeometry y="240" width="250" height="30" as="geometry" />
        </mxCell>
        <mxCell id="90S8i4eGVS4S6o-vOTUU-22" style="shape=partialRectangle;overflow=hidden;connectable=0;fillColor=none;top=0;left=0;bottom=0;right=0;textShadow=0;fontColor=light-dark(#000000,#000000);strokeColor=light-dark(#000000,#000000);rounded=1;" parent="90S8i4eGVS4S6o-vOTUU-21" vertex="1">
          <mxGeometry width="30" height="30" as="geometry">
            <mxRectangle width="30" height="30" as="alternateBounds" />
          </mxGeometry>
        </mxCell>
        <mxCell id="90S8i4eGVS4S6o-vOTUU-23" value="profile_image_url" style="shape=partialRectangle;overflow=hidden;connectable=0;fillColor=none;top=0;left=0;bottom=0;right=0;align=left;spacingLeft=6;textShadow=0;fontColor=light-dark(#000000,#000000);strokeColor=light-dark(#000000,#000000);rounded=1;" parent="90S8i4eGVS4S6o-vOTUU-21" vertex="1">
          <mxGeometry x="30" width="220" height="30" as="geometry">
            <mxRectangle width="220" height="30" as="alternateBounds" />
          </mxGeometry>
        </mxCell>
        <mxCell id="2w68A3cYPR3M8UwBagFj-73" style="shape=partialRectangle;collapsible=0;dropTarget=0;pointerEvents=0;fillColor=none;points=[[0,0.5],[1,0.5]];portConstraint=eastwest;top=0;left=0;right=0;bottom=0;textShadow=0;fontColor=light-dark(#000000,#000000);strokeColor=light-dark(#000000,#000000);rounded=1;" parent="C-vyLk0tnHw3VtMMgP7b-23" vertex="1">
          <mxGeometry y="270" width="250" height="30" as="geometry" />
        </mxCell>
        <mxCell id="2w68A3cYPR3M8UwBagFj-74" style="shape=partialRectangle;overflow=hidden;connectable=0;fillColor=none;top=0;left=0;bottom=0;right=0;textShadow=0;fontColor=light-dark(#000000,#000000);strokeColor=light-dark(#000000,#000000);rounded=1;" parent="2w68A3cYPR3M8UwBagFj-73" vertex="1">
          <mxGeometry width="30" height="30" as="geometry">
            <mxRectangle width="30" height="30" as="alternateBounds" />
          </mxGeometry>
        </mxCell>
        <mxCell id="2w68A3cYPR3M8UwBagFj-75" value="created_at" style="shape=partialRectangle;overflow=hidden;connectable=0;fillColor=none;top=0;left=0;bottom=0;right=0;align=left;spacingLeft=6;textShadow=0;fontColor=light-dark(#000000,#000000);strokeColor=light-dark(#000000,#000000);rounded=1;" parent="2w68A3cYPR3M8UwBagFj-73" vertex="1">
          <mxGeometry x="30" width="220" height="30" as="geometry">
            <mxRectangle width="220" height="30" as="alternateBounds" />
          </mxGeometry>
        </mxCell>
        <mxCell id="2w68A3cYPR3M8UwBagFj-41" value="points" style="shape=table;startSize=30;container=1;collapsible=1;childLayout=tableLayout;fixedRows=1;rowLines=0;fontStyle=1;align=center;resizeLast=1;textShadow=0;fontColor=light-dark(#000000,#000000);strokeColor=light-dark(#000000,#000000);fillColor=light-dark(#FFFFFF,#A9C4EB);rounded=1;" parent="1" vertex="1">
          <mxGeometry x="20" y="620" width="250" height="220" as="geometry" />
        </mxCell>
        <mxCell id="2w68A3cYPR3M8UwBagFj-42" value="" style="shape=partialRectangle;collapsible=0;dropTarget=0;pointerEvents=0;fillColor=none;points=[[0,0.5],[1,0.5]];portConstraint=eastwest;top=0;left=0;right=0;bottom=1;textShadow=0;fontColor=light-dark(#000000,#000000);strokeColor=light-dark(#000000,#000000);rounded=1;" parent="2w68A3cYPR3M8UwBagFj-41" vertex="1">
          <mxGeometry y="30" width="250" height="30" as="geometry" />
        </mxCell>
        <mxCell id="2w68A3cYPR3M8UwBagFj-43" value="PK" style="shape=partialRectangle;overflow=hidden;connectable=0;fillColor=none;top=0;left=0;bottom=0;right=0;fontStyle=1;textShadow=0;fontColor=light-dark(#000000,#000000);strokeColor=light-dark(#000000,#000000);rounded=1;" parent="2w68A3cYPR3M8UwBagFj-42" vertex="1">
          <mxGeometry width="30" height="30" as="geometry">
            <mxRectangle width="30" height="30" as="alternateBounds" />
          </mxGeometry>
        </mxCell>
        <mxCell id="2w68A3cYPR3M8UwBagFj-44" value="id" style="shape=partialRectangle;overflow=hidden;connectable=0;fillColor=none;top=0;left=0;bottom=0;right=0;align=left;spacingLeft=6;fontStyle=5;textShadow=0;fontColor=light-dark(#000000,#000000);strokeColor=light-dark(#000000,#000000);rounded=1;" parent="2w68A3cYPR3M8UwBagFj-42" vertex="1">
          <mxGeometry x="30" width="220" height="30" as="geometry">
            <mxRectangle width="220" height="30" as="alternateBounds" />
          </mxGeometry>
        </mxCell>
        <mxCell id="2w68A3cYPR3M8UwBagFj-45" value="" style="shape=partialRectangle;collapsible=0;dropTarget=0;pointerEvents=0;fillColor=none;points=[[0,0.5],[1,0.5]];portConstraint=eastwest;top=0;left=0;right=0;bottom=0;textShadow=0;fontColor=light-dark(#000000,#000000);strokeColor=light-dark(#000000,#000000);rounded=1;" parent="2w68A3cYPR3M8UwBagFj-41" vertex="1">
          <mxGeometry y="60" width="250" height="30" as="geometry" />
        </mxCell>
        <mxCell id="2w68A3cYPR3M8UwBagFj-46" value="FK" style="shape=partialRectangle;overflow=hidden;connectable=0;fillColor=none;top=0;left=0;bottom=0;right=0;textShadow=0;fontColor=light-dark(#000000,#000000);strokeColor=light-dark(#000000,#000000);rounded=1;" parent="2w68A3cYPR3M8UwBagFj-45" vertex="1">
          <mxGeometry width="30" height="30" as="geometry">
            <mxRectangle width="30" height="30" as="alternateBounds" />
          </mxGeometry>
        </mxCell>
        <mxCell id="2w68A3cYPR3M8UwBagFj-47" value="user_id" style="shape=partialRectangle;overflow=hidden;connectable=0;fillColor=none;top=0;left=0;bottom=0;right=0;align=left;spacingLeft=6;textShadow=0;fontColor=light-dark(#000000,#000000);strokeColor=light-dark(#000000,#000000);rounded=1;" parent="2w68A3cYPR3M8UwBagFj-45" vertex="1">
          <mxGeometry x="30" width="220" height="30" as="geometry">
            <mxRectangle width="220" height="30" as="alternateBounds" />
          </mxGeometry>
        </mxCell>
        <mxCell id="2w68A3cYPR3M8UwBagFj-48" value="" style="shape=partialRectangle;collapsible=0;dropTarget=0;pointerEvents=0;fillColor=none;points=[[0,0.5],[1,0.5]];portConstraint=eastwest;top=0;left=0;right=0;bottom=0;textShadow=0;fontColor=light-dark(#000000,#000000);strokeColor=light-dark(#000000,#000000);rounded=1;" parent="2w68A3cYPR3M8UwBagFj-41" vertex="1">
          <mxGeometry y="90" width="250" height="30" as="geometry" />
        </mxCell>
        <mxCell id="2w68A3cYPR3M8UwBagFj-49" value="FK" style="shape=partialRectangle;overflow=hidden;connectable=0;fillColor=none;top=0;left=0;bottom=0;right=0;textShadow=0;fontColor=light-dark(#000000,#000000);strokeColor=light-dark(#000000,#000000);rounded=1;" parent="2w68A3cYPR3M8UwBagFj-48" vertex="1">
          <mxGeometry width="30" height="30" as="geometry">
            <mxRectangle width="30" height="30" as="alternateBounds" />
          </mxGeometry>
        </mxCell>
        <mxCell id="2w68A3cYPR3M8UwBagFj-50" value="event_id" style="shape=partialRectangle;overflow=hidden;connectable=0;fillColor=none;top=0;left=0;bottom=0;right=0;align=left;spacingLeft=6;textShadow=0;fontColor=light-dark(#000000,#000000);strokeColor=light-dark(#000000,#000000);rounded=1;" parent="2w68A3cYPR3M8UwBagFj-48" vertex="1">
          <mxGeometry x="30" width="220" height="30" as="geometry">
            <mxRectangle width="220" height="30" as="alternateBounds" />
          </mxGeometry>
        </mxCell>
        <mxCell id="2w68A3cYPR3M8UwBagFj-51" style="shape=partialRectangle;collapsible=0;dropTarget=0;pointerEvents=0;fillColor=none;points=[[0,0.5],[1,0.5]];portConstraint=eastwest;top=0;left=0;right=0;bottom=0;textShadow=0;fontColor=light-dark(#000000,#000000);strokeColor=light-dark(#000000,#000000);rounded=1;" parent="2w68A3cYPR3M8UwBagFj-41" vertex="1">
          <mxGeometry y="120" width="250" height="30" as="geometry" />
        </mxCell>
        <mxCell id="2w68A3cYPR3M8UwBagFj-52" style="shape=partialRectangle;overflow=hidden;connectable=0;fillColor=none;top=0;left=0;bottom=0;right=0;textShadow=0;fontColor=light-dark(#000000,#000000);strokeColor=light-dark(#000000,#000000);rounded=1;" parent="2w68A3cYPR3M8UwBagFj-51" vertex="1">
          <mxGeometry width="30" height="30" as="geometry">
            <mxRectangle width="30" height="30" as="alternateBounds" />
          </mxGeometry>
        </mxCell>
        <mxCell id="2w68A3cYPR3M8UwBagFj-53" value="points" style="shape=partialRectangle;overflow=hidden;connectable=0;fillColor=none;top=0;left=0;bottom=0;right=0;align=left;spacingLeft=6;textShadow=0;fontColor=light-dark(#000000,#000000);strokeColor=light-dark(#000000,#000000);rounded=1;" parent="2w68A3cYPR3M8UwBagFj-51" vertex="1">
          <mxGeometry x="30" width="220" height="30" as="geometry">
            <mxRectangle width="220" height="30" as="alternateBounds" />
          </mxGeometry>
        </mxCell>
        <mxCell id="2w68A3cYPR3M8UwBagFj-54" style="shape=partialRectangle;collapsible=0;dropTarget=0;pointerEvents=0;fillColor=none;points=[[0,0.5],[1,0.5]];portConstraint=eastwest;top=0;left=0;right=0;bottom=0;textShadow=0;fontColor=light-dark(#000000,#000000);strokeColor=light-dark(#000000,#000000);rounded=1;" parent="2w68A3cYPR3M8UwBagFj-41" vertex="1">
          <mxGeometry y="150" width="250" height="30" as="geometry" />
        </mxCell>
        <mxCell id="2w68A3cYPR3M8UwBagFj-55" style="shape=partialRectangle;overflow=hidden;connectable=0;fillColor=none;top=0;left=0;bottom=0;right=0;textShadow=0;fontColor=light-dark(#000000,#000000);strokeColor=light-dark(#000000,#000000);rounded=1;" parent="2w68A3cYPR3M8UwBagFj-54" vertex="1">
          <mxGeometry width="30" height="30" as="geometry">
            <mxRectangle width="30" height="30" as="alternateBounds" />
          </mxGeometry>
        </mxCell>
        <mxCell id="2w68A3cYPR3M8UwBagFj-56" value="granted_at" style="shape=partialRectangle;overflow=hidden;connectable=0;fillColor=none;top=0;left=0;bottom=0;right=0;align=left;spacingLeft=6;textShadow=0;fontColor=light-dark(#000000,#000000);strokeColor=light-dark(#000000,#000000);rounded=1;" parent="2w68A3cYPR3M8UwBagFj-54" vertex="1">
          <mxGeometry x="30" width="220" height="30" as="geometry">
            <mxRectangle width="220" height="30" as="alternateBounds" />
          </mxGeometry>
        </mxCell>
        <mxCell id="KlMqCPawbF4SIBuH-tO9-19" style="shape=partialRectangle;collapsible=0;dropTarget=0;pointerEvents=0;fillColor=none;points=[[0,0.5],[1,0.5]];portConstraint=eastwest;top=0;left=0;right=0;bottom=0;textShadow=0;fontColor=light-dark(#000000,#000000);strokeColor=light-dark(#000000,#000000);rounded=1;" parent="2w68A3cYPR3M8UwBagFj-41" vertex="1">
          <mxGeometry y="180" width="250" height="30" as="geometry" />
        </mxCell>
        <mxCell id="KlMqCPawbF4SIBuH-tO9-20" style="shape=partialRectangle;overflow=hidden;connectable=0;fillColor=none;top=0;left=0;bottom=0;right=0;textShadow=0;fontColor=light-dark(#000000,#000000);strokeColor=light-dark(#000000,#000000);rounded=1;" parent="KlMqCPawbF4SIBuH-tO9-19" vertex="1">
          <mxGeometry width="30" height="30" as="geometry">
            <mxRectangle width="30" height="30" as="alternateBounds" />
          </mxGeometry>
        </mxCell>
        <mxCell id="KlMqCPawbF4SIBuH-tO9-21" value="created_at" style="shape=partialRectangle;overflow=hidden;connectable=0;fillColor=none;top=0;left=0;bottom=0;right=0;align=left;spacingLeft=6;textShadow=0;fontColor=light-dark(#000000,#000000);strokeColor=light-dark(#000000,#000000);rounded=1;" parent="KlMqCPawbF4SIBuH-tO9-19" vertex="1">
          <mxGeometry x="30" width="220" height="30" as="geometry">
            <mxRectangle width="220" height="30" as="alternateBounds" />
          </mxGeometry>
        </mxCell>
        <mxCell id="2w68A3cYPR3M8UwBagFj-79" value="children" style="shape=table;startSize=30;container=1;collapsible=1;childLayout=tableLayout;fixedRows=1;rowLines=0;fontStyle=1;align=center;resizeLast=1;textShadow=0;fontColor=light-dark(#000000,#000000);strokeColor=light-dark(#000000,#000000);labelBackgroundColor=none;fillColor=light-dark(#FFFFFF,#B5739D);rounded=1;" parent="1" vertex="1">
          <mxGeometry x="-410" y="380" width="250" height="190" as="geometry" />
        </mxCell>
        <mxCell id="2w68A3cYPR3M8UwBagFj-80" value="" style="shape=partialRectangle;collapsible=0;dropTarget=0;pointerEvents=0;fillColor=none;points=[[0,0.5],[1,0.5]];portConstraint=eastwest;top=0;left=0;right=0;bottom=1;textShadow=0;fontColor=light-dark(#000000,#000000);strokeColor=light-dark(#000000,#000000);rounded=1;" parent="2w68A3cYPR3M8UwBagFj-79" vertex="1">
          <mxGeometry y="30" width="250" height="30" as="geometry" />
        </mxCell>
        <mxCell id="2w68A3cYPR3M8UwBagFj-81" value="PK" style="shape=partialRectangle;overflow=hidden;connectable=0;fillColor=none;top=0;left=0;bottom=0;right=0;fontStyle=1;textShadow=0;fontColor=light-dark(#000000,#000000);strokeColor=light-dark(#000000,#000000);rounded=1;" parent="2w68A3cYPR3M8UwBagFj-80" vertex="1">
          <mxGeometry width="30" height="30" as="geometry">
            <mxRectangle width="30" height="30" as="alternateBounds" />
          </mxGeometry>
        </mxCell>
        <mxCell id="2w68A3cYPR3M8UwBagFj-82" value="id" style="shape=partialRectangle;overflow=hidden;connectable=0;fillColor=none;top=0;left=0;bottom=0;right=0;align=left;spacingLeft=6;fontStyle=5;textShadow=0;fontColor=light-dark(#000000,#000000);strokeColor=light-dark(#000000,#000000);rounded=1;" parent="2w68A3cYPR3M8UwBagFj-80" vertex="1">
          <mxGeometry x="30" width="220" height="30" as="geometry">
            <mxRectangle width="220" height="30" as="alternateBounds" />
          </mxGeometry>
        </mxCell>
        <mxCell id="2w68A3cYPR3M8UwBagFj-83" value="" style="shape=partialRectangle;collapsible=0;dropTarget=0;pointerEvents=0;fillColor=none;points=[[0,0.5],[1,0.5]];portConstraint=eastwest;top=0;left=0;right=0;bottom=0;textShadow=0;fontColor=light-dark(#000000,#000000);strokeColor=light-dark(#000000,#000000);rounded=1;" parent="2w68A3cYPR3M8UwBagFj-79" vertex="1">
          <mxGeometry y="60" width="250" height="30" as="geometry" />
        </mxCell>
        <mxCell id="2w68A3cYPR3M8UwBagFj-84" value="FK" style="shape=partialRectangle;overflow=hidden;connectable=0;fillColor=none;top=0;left=0;bottom=0;right=0;textShadow=0;fontColor=light-dark(#000000,#000000);strokeColor=light-dark(#000000,#000000);rounded=1;" parent="2w68A3cYPR3M8UwBagFj-83" vertex="1">
          <mxGeometry width="30" height="30" as="geometry">
            <mxRectangle width="30" height="30" as="alternateBounds" />
          </mxGeometry>
        </mxCell>
        <mxCell id="2w68A3cYPR3M8UwBagFj-85" value="user_id" style="shape=partialRectangle;overflow=hidden;connectable=0;fillColor=none;top=0;left=0;bottom=0;right=0;align=left;spacingLeft=6;textShadow=0;fontColor=light-dark(#000000,#000000);strokeColor=light-dark(#000000,#000000);rounded=1;" parent="2w68A3cYPR3M8UwBagFj-83" vertex="1">
          <mxGeometry x="30" width="220" height="30" as="geometry">
            <mxRectangle width="220" height="30" as="alternateBounds" />
          </mxGeometry>
        </mxCell>
        <mxCell id="2w68A3cYPR3M8UwBagFj-86" style="shape=partialRectangle;collapsible=0;dropTarget=0;pointerEvents=0;fillColor=none;points=[[0,0.5],[1,0.5]];portConstraint=eastwest;top=0;left=0;right=0;bottom=0;textShadow=0;fontColor=light-dark(#000000,#000000);strokeColor=light-dark(#000000,#000000);rounded=1;" parent="2w68A3cYPR3M8UwBagFj-79" vertex="1">
          <mxGeometry y="90" width="250" height="30" as="geometry" />
        </mxCell>
        <mxCell id="2w68A3cYPR3M8UwBagFj-87" style="shape=partialRectangle;overflow=hidden;connectable=0;fillColor=none;top=0;left=0;bottom=0;right=0;textShadow=0;fontColor=light-dark(#000000,#000000);strokeColor=light-dark(#000000,#000000);rounded=1;" parent="2w68A3cYPR3M8UwBagFj-86" vertex="1">
          <mxGeometry width="30" height="30" as="geometry">
            <mxRectangle width="30" height="30" as="alternateBounds" />
          </mxGeometry>
        </mxCell>
        <mxCell id="2w68A3cYPR3M8UwBagFj-88" value="name" style="shape=partialRectangle;overflow=hidden;connectable=0;fillColor=none;top=0;left=0;bottom=0;right=0;align=left;spacingLeft=6;textShadow=0;fontColor=light-dark(#000000,#000000);strokeColor=light-dark(#000000,#000000);rounded=1;" parent="2w68A3cYPR3M8UwBagFj-86" vertex="1">
          <mxGeometry x="30" width="220" height="30" as="geometry">
            <mxRectangle width="220" height="30" as="alternateBounds" />
          </mxGeometry>
        </mxCell>
        <mxCell id="2w68A3cYPR3M8UwBagFj-89" style="shape=partialRectangle;collapsible=0;dropTarget=0;pointerEvents=0;fillColor=none;points=[[0,0.5],[1,0.5]];portConstraint=eastwest;top=0;left=0;right=0;bottom=0;textShadow=0;fontColor=light-dark(#000000,#000000);strokeColor=light-dark(#000000,#000000);rounded=1;" parent="2w68A3cYPR3M8UwBagFj-79" vertex="1">
          <mxGeometry y="120" width="250" height="30" as="geometry" />
        </mxCell>
        <mxCell id="2w68A3cYPR3M8UwBagFj-90" style="shape=partialRectangle;overflow=hidden;connectable=0;fillColor=none;top=0;left=0;bottom=0;right=0;textShadow=0;fontColor=light-dark(#000000,#000000);strokeColor=light-dark(#000000,#000000);rounded=1;" parent="2w68A3cYPR3M8UwBagFj-89" vertex="1">
          <mxGeometry width="30" height="30" as="geometry">
            <mxRectangle width="30" height="30" as="alternateBounds" />
          </mxGeometry>
        </mxCell>
        <mxCell id="2w68A3cYPR3M8UwBagFj-91" value="class_name" style="shape=partialRectangle;overflow=hidden;connectable=0;fillColor=none;top=0;left=0;bottom=0;right=0;align=left;spacingLeft=6;textShadow=0;fontColor=light-dark(#000000,#000000);strokeColor=light-dark(#000000,#000000);rounded=1;" parent="2w68A3cYPR3M8UwBagFj-89" vertex="1">
          <mxGeometry x="30" width="220" height="30" as="geometry">
            <mxRectangle width="220" height="30" as="alternateBounds" />
          </mxGeometry>
        </mxCell>
        <mxCell id="KlMqCPawbF4SIBuH-tO9-4" style="shape=partialRectangle;collapsible=0;dropTarget=0;pointerEvents=0;fillColor=none;points=[[0,0.5],[1,0.5]];portConstraint=eastwest;top=0;left=0;right=0;bottom=0;textShadow=0;fontColor=light-dark(#000000,#000000);strokeColor=light-dark(#000000,#000000);rounded=1;" parent="2w68A3cYPR3M8UwBagFj-79" vertex="1">
          <mxGeometry y="150" width="250" height="30" as="geometry" />
        </mxCell>
        <mxCell id="KlMqCPawbF4SIBuH-tO9-5" style="shape=partialRectangle;overflow=hidden;connectable=0;fillColor=none;top=0;left=0;bottom=0;right=0;textShadow=0;fontColor=light-dark(#000000,#000000);strokeColor=light-dark(#000000,#000000);rounded=1;" parent="KlMqCPawbF4SIBuH-tO9-4" vertex="1">
          <mxGeometry width="30" height="30" as="geometry">
            <mxRectangle width="30" height="30" as="alternateBounds" />
          </mxGeometry>
        </mxCell>
        <mxCell id="KlMqCPawbF4SIBuH-tO9-6" value="created_at" style="shape=partialRectangle;overflow=hidden;connectable=0;fillColor=none;top=0;left=0;bottom=0;right=0;align=left;spacingLeft=6;textShadow=0;fontColor=light-dark(#000000,#000000);strokeColor=light-dark(#000000,#000000);rounded=1;" parent="KlMqCPawbF4SIBuH-tO9-4" vertex="1">
          <mxGeometry x="30" width="220" height="30" as="geometry">
            <mxRectangle width="220" height="30" as="alternateBounds" />
          </mxGeometry>
        </mxCell>
        <mxCell id="2w68A3cYPR3M8UwBagFj-101" value="event_slots" style="shape=table;startSize=30;container=1;collapsible=1;childLayout=tableLayout;fixedRows=1;rowLines=0;fontStyle=1;align=center;resizeLast=1;textShadow=0;fontColor=light-dark(#000000,#000000);strokeColor=light-dark(#000000,#000000);fillColor=light-dark(#FFFFFF,#FFE599);rounded=1;" parent="1" vertex="1">
          <mxGeometry x="460" y="40" width="250" height="220" as="geometry" />
        </mxCell>
        <mxCell id="2w68A3cYPR3M8UwBagFj-102" value="" style="shape=partialRectangle;collapsible=0;dropTarget=0;pointerEvents=0;fillColor=none;points=[[0,0.5],[1,0.5]];portConstraint=eastwest;top=0;left=0;right=0;bottom=1;textShadow=0;fontColor=light-dark(#000000,#000000);strokeColor=light-dark(#000000,#000000);rounded=1;" parent="2w68A3cYPR3M8UwBagFj-101" vertex="1">
          <mxGeometry y="30" width="250" height="30" as="geometry" />
        </mxCell>
        <mxCell id="2w68A3cYPR3M8UwBagFj-103" value="PK" style="shape=partialRectangle;overflow=hidden;connectable=0;fillColor=none;top=0;left=0;bottom=0;right=0;fontStyle=1;textShadow=0;fontColor=light-dark(#000000,#000000);strokeColor=light-dark(#000000,#000000);rounded=1;" parent="2w68A3cYPR3M8UwBagFj-102" vertex="1">
          <mxGeometry width="30" height="30" as="geometry">
            <mxRectangle width="30" height="30" as="alternateBounds" />
          </mxGeometry>
        </mxCell>
        <mxCell id="2w68A3cYPR3M8UwBagFj-104" value="id" style="shape=partialRectangle;overflow=hidden;connectable=0;fillColor=none;top=0;left=0;bottom=0;right=0;align=left;spacingLeft=6;fontStyle=5;textShadow=0;fontColor=light-dark(#000000,#000000);strokeColor=light-dark(#000000,#000000);rounded=1;" parent="2w68A3cYPR3M8UwBagFj-102" vertex="1">
          <mxGeometry x="30" width="220" height="30" as="geometry">
            <mxRectangle width="220" height="30" as="alternateBounds" />
          </mxGeometry>
        </mxCell>
        <mxCell id="2w68A3cYPR3M8UwBagFj-105" value="" style="shape=partialRectangle;collapsible=0;dropTarget=0;pointerEvents=0;fillColor=none;points=[[0,0.5],[1,0.5]];portConstraint=eastwest;top=0;left=0;right=0;bottom=0;textShadow=0;fontColor=light-dark(#000000,#000000);strokeColor=light-dark(#000000,#000000);rounded=1;" parent="2w68A3cYPR3M8UwBagFj-101" vertex="1">
          <mxGeometry y="60" width="250" height="30" as="geometry" />
        </mxCell>
        <mxCell id="2w68A3cYPR3M8UwBagFj-106" value="FK" style="shape=partialRectangle;overflow=hidden;connectable=0;fillColor=none;top=0;left=0;bottom=0;right=0;textShadow=0;fontColor=light-dark(#000000,#000000);strokeColor=light-dark(#000000,#000000);rounded=1;" parent="2w68A3cYPR3M8UwBagFj-105" vertex="1">
          <mxGeometry width="30" height="30" as="geometry">
            <mxRectangle width="30" height="30" as="alternateBounds" />
          </mxGeometry>
        </mxCell>
        <mxCell id="2w68A3cYPR3M8UwBagFj-107" value="event_id" style="shape=partialRectangle;overflow=hidden;connectable=0;fillColor=none;top=0;left=0;bottom=0;right=0;align=left;spacingLeft=6;textShadow=0;fontColor=light-dark(#000000,#000000);strokeColor=light-dark(#000000,#000000);rounded=1;" parent="2w68A3cYPR3M8UwBagFj-105" vertex="1">
          <mxGeometry x="30" width="220" height="30" as="geometry">
            <mxRectangle width="220" height="30" as="alternateBounds" />
          </mxGeometry>
        </mxCell>
        <mxCell id="2w68A3cYPR3M8UwBagFj-111" style="shape=partialRectangle;collapsible=0;dropTarget=0;pointerEvents=0;fillColor=none;points=[[0,0.5],[1,0.5]];portConstraint=eastwest;top=0;left=0;right=0;bottom=0;textShadow=0;fontColor=light-dark(#000000,#000000);strokeColor=light-dark(#000000,#000000);rounded=1;" parent="2w68A3cYPR3M8UwBagFj-101" vertex="1">
          <mxGeometry y="90" width="250" height="30" as="geometry" />
        </mxCell>
        <mxCell id="2w68A3cYPR3M8UwBagFj-112" style="shape=partialRectangle;overflow=hidden;connectable=0;fillColor=none;top=0;left=0;bottom=0;right=0;textShadow=0;fontColor=light-dark(#000000,#000000);strokeColor=light-dark(#000000,#000000);rounded=1;" parent="2w68A3cYPR3M8UwBagFj-111" vertex="1">
          <mxGeometry width="30" height="30" as="geometry">
            <mxRectangle width="30" height="30" as="alternateBounds" />
          </mxGeometry>
        </mxCell>
        <mxCell id="2w68A3cYPR3M8UwBagFj-113" value="start_time" style="shape=partialRectangle;overflow=hidden;connectable=0;fillColor=none;top=0;left=0;bottom=0;right=0;align=left;spacingLeft=6;textShadow=0;fontColor=light-dark(#000000,#000000);strokeColor=light-dark(#000000,#000000);rounded=1;" parent="2w68A3cYPR3M8UwBagFj-111" vertex="1">
          <mxGeometry x="30" width="220" height="30" as="geometry">
            <mxRectangle width="220" height="30" as="alternateBounds" />
          </mxGeometry>
        </mxCell>
        <mxCell id="90S8i4eGVS4S6o-vOTUU-69" style="shape=partialRectangle;collapsible=0;dropTarget=0;pointerEvents=0;fillColor=none;points=[[0,0.5],[1,0.5]];portConstraint=eastwest;top=0;left=0;right=0;bottom=0;textShadow=0;fontColor=light-dark(#000000,#000000);strokeColor=light-dark(#000000,#000000);rounded=1;" parent="2w68A3cYPR3M8UwBagFj-101" vertex="1">
          <mxGeometry y="120" width="250" height="30" as="geometry" />
        </mxCell>
        <mxCell id="90S8i4eGVS4S6o-vOTUU-70" style="shape=partialRectangle;overflow=hidden;connectable=0;fillColor=none;top=0;left=0;bottom=0;right=0;textShadow=0;fontColor=light-dark(#000000,#000000);strokeColor=light-dark(#000000,#000000);rounded=1;" parent="90S8i4eGVS4S6o-vOTUU-69" vertex="1">
          <mxGeometry width="30" height="30" as="geometry">
            <mxRectangle width="30" height="30" as="alternateBounds" />
          </mxGeometry>
        </mxCell>
        <mxCell id="90S8i4eGVS4S6o-vOTUU-71" value="end_time" style="shape=partialRectangle;overflow=hidden;connectable=0;fillColor=none;top=0;left=0;bottom=0;right=0;align=left;spacingLeft=6;textShadow=0;fontColor=light-dark(#000000,#000000);strokeColor=light-dark(#000000,#000000);rounded=1;" parent="90S8i4eGVS4S6o-vOTUU-69" vertex="1">
          <mxGeometry x="30" width="220" height="30" as="geometry">
            <mxRectangle width="220" height="30" as="alternateBounds" />
          </mxGeometry>
        </mxCell>
        <mxCell id="2w68A3cYPR3M8UwBagFj-114" style="shape=partialRectangle;collapsible=0;dropTarget=0;pointerEvents=0;fillColor=none;points=[[0,0.5],[1,0.5]];portConstraint=eastwest;top=0;left=0;right=0;bottom=0;textShadow=0;fontColor=light-dark(#000000,#000000);strokeColor=light-dark(#000000,#000000);rounded=1;" parent="2w68A3cYPR3M8UwBagFj-101" vertex="1">
          <mxGeometry y="150" width="250" height="30" as="geometry" />
        </mxCell>
        <mxCell id="2w68A3cYPR3M8UwBagFj-115" style="shape=partialRectangle;overflow=hidden;connectable=0;fillColor=none;top=0;left=0;bottom=0;right=0;textShadow=0;fontColor=light-dark(#000000,#000000);strokeColor=light-dark(#000000,#000000);rounded=1;" parent="2w68A3cYPR3M8UwBagFj-114" vertex="1">
          <mxGeometry width="30" height="30" as="geometry">
            <mxRectangle width="30" height="30" as="alternateBounds" />
          </mxGeometry>
        </mxCell>
        <mxCell id="2w68A3cYPR3M8UwBagFj-116" value="capacity" style="shape=partialRectangle;overflow=hidden;connectable=0;fillColor=none;top=0;left=0;bottom=0;right=0;align=left;spacingLeft=6;textShadow=0;fontColor=light-dark(#000000,#000000);strokeColor=light-dark(#000000,#000000);rounded=1;" parent="2w68A3cYPR3M8UwBagFj-114" vertex="1">
          <mxGeometry x="30" width="220" height="30" as="geometry">
            <mxRectangle width="220" height="30" as="alternateBounds" />
          </mxGeometry>
        </mxCell>
        <mxCell id="KlMqCPawbF4SIBuH-tO9-10" style="shape=partialRectangle;collapsible=0;dropTarget=0;pointerEvents=0;fillColor=none;points=[[0,0.5],[1,0.5]];portConstraint=eastwest;top=0;left=0;right=0;bottom=0;textShadow=0;fontColor=light-dark(#000000,#000000);strokeColor=light-dark(#000000,#000000);rounded=1;" parent="2w68A3cYPR3M8UwBagFj-101" vertex="1">
          <mxGeometry y="180" width="250" height="30" as="geometry" />
        </mxCell>
        <mxCell id="KlMqCPawbF4SIBuH-tO9-11" style="shape=partialRectangle;overflow=hidden;connectable=0;fillColor=none;top=0;left=0;bottom=0;right=0;textShadow=0;fontColor=light-dark(#000000,#000000);strokeColor=light-dark(#000000,#000000);rounded=1;" parent="KlMqCPawbF4SIBuH-tO9-10" vertex="1">
          <mxGeometry width="30" height="30" as="geometry">
            <mxRectangle width="30" height="30" as="alternateBounds" />
          </mxGeometry>
        </mxCell>
        <mxCell id="KlMqCPawbF4SIBuH-tO9-12" value="created_at" style="shape=partialRectangle;overflow=hidden;connectable=0;fillColor=none;top=0;left=0;bottom=0;right=0;align=left;spacingLeft=6;textShadow=0;fontColor=light-dark(#000000,#000000);strokeColor=light-dark(#000000,#000000);rounded=1;" parent="KlMqCPawbF4SIBuH-tO9-10" vertex="1">
          <mxGeometry x="30" width="220" height="30" as="geometry">
            <mxRectangle width="220" height="30" as="alternateBounds" />
          </mxGeometry>
        </mxCell>
        <mxCell id="2w68A3cYPR3M8UwBagFj-117" value="rewards" style="shape=table;startSize=30;container=1;collapsible=1;childLayout=tableLayout;fixedRows=1;rowLines=0;fontStyle=1;align=center;resizeLast=1;textShadow=0;fontColor=light-dark(#000000,#000000);strokeColor=light-dark(#000000,#000000);fillColor=light-dark(#FFFFFF,#D5E8D4);rounded=1;" parent="1" vertex="1">
          <mxGeometry x="-800" y="620" width="250" height="220" as="geometry" />
        </mxCell>
        <mxCell id="2w68A3cYPR3M8UwBagFj-118" value="" style="shape=partialRectangle;collapsible=0;dropTarget=0;pointerEvents=0;fillColor=none;points=[[0,0.5],[1,0.5]];portConstraint=eastwest;top=0;left=0;right=0;bottom=1;textShadow=0;fontColor=light-dark(#000000,#000000);strokeColor=light-dark(#000000,#000000);rounded=1;" parent="2w68A3cYPR3M8UwBagFj-117" vertex="1">
          <mxGeometry y="30" width="250" height="30" as="geometry" />
        </mxCell>
        <mxCell id="2w68A3cYPR3M8UwBagFj-119" value="PK" style="shape=partialRectangle;overflow=hidden;connectable=0;fillColor=none;top=0;left=0;bottom=0;right=0;fontStyle=1;textShadow=0;fontColor=light-dark(#000000,#000000);strokeColor=light-dark(#000000,#000000);rounded=1;" parent="2w68A3cYPR3M8UwBagFj-118" vertex="1">
          <mxGeometry width="30" height="30" as="geometry">
            <mxRectangle width="30" height="30" as="alternateBounds" />
          </mxGeometry>
        </mxCell>
        <mxCell id="2w68A3cYPR3M8UwBagFj-120" value="id" style="shape=partialRectangle;overflow=hidden;connectable=0;fillColor=none;top=0;left=0;bottom=0;right=0;align=left;spacingLeft=6;fontStyle=5;textShadow=0;fontColor=light-dark(#000000,#000000);strokeColor=light-dark(#000000,#000000);rounded=1;" parent="2w68A3cYPR3M8UwBagFj-118" vertex="1">
          <mxGeometry x="30" width="220" height="30" as="geometry">
            <mxRectangle width="220" height="30" as="alternateBounds" />
          </mxGeometry>
        </mxCell>
        <mxCell id="2w68A3cYPR3M8UwBagFj-121" value="" style="shape=partialRectangle;collapsible=0;dropTarget=0;pointerEvents=0;fillColor=none;points=[[0,0.5],[1,0.5]];portConstraint=eastwest;top=0;left=0;right=0;bottom=0;textShadow=0;fontColor=light-dark(#000000,#000000);strokeColor=light-dark(#000000,#000000);rounded=1;" parent="2w68A3cYPR3M8UwBagFj-117" vertex="1">
          <mxGeometry y="60" width="250" height="30" as="geometry" />
        </mxCell>
        <mxCell id="2w68A3cYPR3M8UwBagFj-122" value="" style="shape=partialRectangle;overflow=hidden;connectable=0;fillColor=none;top=0;left=0;bottom=0;right=0;textShadow=0;fontColor=light-dark(#000000,#000000);strokeColor=light-dark(#000000,#000000);rounded=1;" parent="2w68A3cYPR3M8UwBagFj-121" vertex="1">
          <mxGeometry width="30" height="30" as="geometry">
            <mxRectangle width="30" height="30" as="alternateBounds" />
          </mxGeometry>
        </mxCell>
        <mxCell id="2w68A3cYPR3M8UwBagFj-123" value="name" style="shape=partialRectangle;overflow=hidden;connectable=0;fillColor=none;top=0;left=0;bottom=0;right=0;align=left;spacingLeft=6;textShadow=0;fontColor=light-dark(#000000,#000000);strokeColor=light-dark(#000000,#000000);rounded=1;" parent="2w68A3cYPR3M8UwBagFj-121" vertex="1">
          <mxGeometry x="30" width="220" height="30" as="geometry">
            <mxRectangle width="220" height="30" as="alternateBounds" />
          </mxGeometry>
        </mxCell>
        <mxCell id="2w68A3cYPR3M8UwBagFj-124" value="" style="shape=partialRectangle;collapsible=0;dropTarget=0;pointerEvents=0;fillColor=none;points=[[0,0.5],[1,0.5]];portConstraint=eastwest;top=0;left=0;right=0;bottom=0;textShadow=0;fontColor=light-dark(#000000,#000000);strokeColor=light-dark(#000000,#000000);rounded=1;" parent="2w68A3cYPR3M8UwBagFj-117" vertex="1">
          <mxGeometry y="90" width="250" height="30" as="geometry" />
        </mxCell>
        <mxCell id="2w68A3cYPR3M8UwBagFj-125" value="" style="shape=partialRectangle;overflow=hidden;connectable=0;fillColor=none;top=0;left=0;bottom=0;right=0;textShadow=0;fontColor=light-dark(#000000,#000000);strokeColor=light-dark(#000000,#000000);rounded=1;" parent="2w68A3cYPR3M8UwBagFj-124" vertex="1">
          <mxGeometry width="30" height="30" as="geometry">
            <mxRectangle width="30" height="30" as="alternateBounds" />
          </mxGeometry>
        </mxCell>
        <mxCell id="2w68A3cYPR3M8UwBagFj-126" value="description" style="shape=partialRectangle;overflow=hidden;connectable=0;fillColor=none;top=0;left=0;bottom=0;right=0;align=left;spacingLeft=6;textShadow=0;fontColor=light-dark(#000000,#000000);strokeColor=light-dark(#000000,#000000);rounded=1;" parent="2w68A3cYPR3M8UwBagFj-124" vertex="1">
          <mxGeometry x="30" width="220" height="30" as="geometry">
            <mxRectangle width="220" height="30" as="alternateBounds" />
          </mxGeometry>
        </mxCell>
        <mxCell id="2w68A3cYPR3M8UwBagFj-127" style="shape=partialRectangle;collapsible=0;dropTarget=0;pointerEvents=0;fillColor=none;points=[[0,0.5],[1,0.5]];portConstraint=eastwest;top=0;left=0;right=0;bottom=0;textShadow=0;fontColor=light-dark(#000000,#000000);strokeColor=light-dark(#000000,#000000);rounded=1;" parent="2w68A3cYPR3M8UwBagFj-117" vertex="1">
          <mxGeometry y="120" width="250" height="30" as="geometry" />
        </mxCell>
        <mxCell id="2w68A3cYPR3M8UwBagFj-128" value="" style="shape=partialRectangle;overflow=hidden;connectable=0;fillColor=none;top=0;left=0;bottom=0;right=0;textShadow=0;fontColor=light-dark(#000000,#000000);strokeColor=light-dark(#000000,#000000);rounded=1;" parent="2w68A3cYPR3M8UwBagFj-127" vertex="1">
          <mxGeometry width="30" height="30" as="geometry">
            <mxRectangle width="30" height="30" as="alternateBounds" />
          </mxGeometry>
        </mxCell>
        <mxCell id="2w68A3cYPR3M8UwBagFj-129" value="points_required" style="shape=partialRectangle;overflow=hidden;connectable=0;fillColor=none;top=0;left=0;bottom=0;right=0;align=left;spacingLeft=6;textShadow=0;fontColor=light-dark(#000000,#000000);strokeColor=light-dark(#000000,#000000);rounded=1;" parent="2w68A3cYPR3M8UwBagFj-127" vertex="1">
          <mxGeometry x="30" width="220" height="30" as="geometry">
            <mxRectangle width="220" height="30" as="alternateBounds" />
          </mxGeometry>
        </mxCell>
        <mxCell id="KlMqCPawbF4SIBuH-tO9-22" style="shape=partialRectangle;collapsible=0;dropTarget=0;pointerEvents=0;fillColor=none;points=[[0,0.5],[1,0.5]];portConstraint=eastwest;top=0;left=0;right=0;bottom=0;textShadow=0;fontColor=light-dark(#000000,#000000);strokeColor=light-dark(#000000,#000000);rounded=1;" parent="2w68A3cYPR3M8UwBagFj-117" vertex="1">
          <mxGeometry y="150" width="250" height="30" as="geometry" />
        </mxCell>
        <mxCell id="KlMqCPawbF4SIBuH-tO9-23" style="shape=partialRectangle;overflow=hidden;connectable=0;fillColor=none;top=0;left=0;bottom=0;right=0;textShadow=0;fontColor=light-dark(#000000,#000000);strokeColor=light-dark(#000000,#000000);rounded=1;" parent="KlMqCPawbF4SIBuH-tO9-22" vertex="1">
          <mxGeometry width="30" height="30" as="geometry">
            <mxRectangle width="30" height="30" as="alternateBounds" />
          </mxGeometry>
        </mxCell>
        <mxCell id="KlMqCPawbF4SIBuH-tO9-24" value="capacity" style="shape=partialRectangle;overflow=hidden;connectable=0;fillColor=none;top=0;left=0;bottom=0;right=0;align=left;spacingLeft=6;textShadow=0;fontColor=light-dark(#000000,#000000);strokeColor=light-dark(#000000,#000000);rounded=1;" parent="KlMqCPawbF4SIBuH-tO9-22" vertex="1">
          <mxGeometry x="30" width="220" height="30" as="geometry">
            <mxRectangle width="220" height="30" as="alternateBounds" />
          </mxGeometry>
        </mxCell>
        <mxCell id="KlMqCPawbF4SIBuH-tO9-25" style="shape=partialRectangle;collapsible=0;dropTarget=0;pointerEvents=0;fillColor=none;points=[[0,0.5],[1,0.5]];portConstraint=eastwest;top=0;left=0;right=0;bottom=0;textShadow=0;fontColor=light-dark(#000000,#000000);strokeColor=light-dark(#000000,#000000);rounded=1;" parent="2w68A3cYPR3M8UwBagFj-117" vertex="1">
          <mxGeometry y="180" width="250" height="30" as="geometry" />
        </mxCell>
        <mxCell id="KlMqCPawbF4SIBuH-tO9-26" style="shape=partialRectangle;overflow=hidden;connectable=0;fillColor=none;top=0;left=0;bottom=0;right=0;textShadow=0;fontColor=light-dark(#000000,#000000);strokeColor=light-dark(#000000,#000000);rounded=1;" parent="KlMqCPawbF4SIBuH-tO9-25" vertex="1">
          <mxGeometry width="30" height="30" as="geometry">
            <mxRectangle width="30" height="30" as="alternateBounds" />
          </mxGeometry>
        </mxCell>
        <mxCell id="KlMqCPawbF4SIBuH-tO9-27" value="created_at" style="shape=partialRectangle;overflow=hidden;connectable=0;fillColor=none;top=0;left=0;bottom=0;right=0;align=left;spacingLeft=6;textShadow=0;fontColor=light-dark(#000000,#000000);strokeColor=light-dark(#000000,#000000);rounded=1;" parent="KlMqCPawbF4SIBuH-tO9-25" vertex="1">
          <mxGeometry x="30" width="220" height="30" as="geometry">
            <mxRectangle width="220" height="30" as="alternateBounds" />
          </mxGeometry>
        </mxCell>
        <mxCell id="2w68A3cYPR3M8UwBagFj-149" value="privilegs" style="shape=table;startSize=30;container=1;collapsible=1;childLayout=tableLayout;fixedRows=1;rowLines=0;fontStyle=1;align=center;resizeLast=1;textShadow=0;fontColor=light-dark(#000000,#000000);strokeColor=light-dark(#000000,#000000);fillColor=light-dark(#FFFFFF,#FFF4C3);rounded=1;" parent="1" vertex="1">
          <mxGeometry x="-410" y="620" width="250" height="250" as="geometry" />
        </mxCell>
        <mxCell id="2w68A3cYPR3M8UwBagFj-150" value="" style="shape=partialRectangle;collapsible=0;dropTarget=0;pointerEvents=0;fillColor=none;points=[[0,0.5],[1,0.5]];portConstraint=eastwest;top=0;left=0;right=0;bottom=1;textShadow=0;fontColor=light-dark(#000000,#000000);strokeColor=light-dark(#000000,#000000);rounded=1;" parent="2w68A3cYPR3M8UwBagFj-149" vertex="1">
          <mxGeometry y="30" width="250" height="30" as="geometry" />
        </mxCell>
        <mxCell id="2w68A3cYPR3M8UwBagFj-151" value="PK" style="shape=partialRectangle;overflow=hidden;connectable=0;fillColor=none;top=0;left=0;bottom=0;right=0;fontStyle=1;textShadow=0;fontColor=light-dark(#000000,#000000);strokeColor=light-dark(#000000,#000000);rounded=1;" parent="2w68A3cYPR3M8UwBagFj-150" vertex="1">
          <mxGeometry width="30" height="30" as="geometry">
            <mxRectangle width="30" height="30" as="alternateBounds" />
          </mxGeometry>
        </mxCell>
        <mxCell id="2w68A3cYPR3M8UwBagFj-152" value="id" style="shape=partialRectangle;overflow=hidden;connectable=0;fillColor=none;top=0;left=0;bottom=0;right=0;align=left;spacingLeft=6;fontStyle=5;textShadow=0;fontColor=light-dark(#000000,#000000);strokeColor=light-dark(#000000,#000000);rounded=1;" parent="2w68A3cYPR3M8UwBagFj-150" vertex="1">
          <mxGeometry x="30" width="220" height="30" as="geometry">
            <mxRectangle width="220" height="30" as="alternateBounds" />
          </mxGeometry>
        </mxCell>
        <mxCell id="2w68A3cYPR3M8UwBagFj-153" value="" style="shape=partialRectangle;collapsible=0;dropTarget=0;pointerEvents=0;fillColor=none;points=[[0,0.5],[1,0.5]];portConstraint=eastwest;top=0;left=0;right=0;bottom=0;textShadow=0;fontColor=light-dark(#000000,#000000);strokeColor=light-dark(#000000,#000000);rounded=1;" parent="2w68A3cYPR3M8UwBagFj-149" vertex="1">
          <mxGeometry y="60" width="250" height="30" as="geometry" />
        </mxCell>
        <mxCell id="2w68A3cYPR3M8UwBagFj-154" value="FK" style="shape=partialRectangle;overflow=hidden;connectable=0;fillColor=none;top=0;left=0;bottom=0;right=0;textShadow=0;fontColor=light-dark(#000000,#000000);strokeColor=light-dark(#000000,#000000);rounded=1;" parent="2w68A3cYPR3M8UwBagFj-153" vertex="1">
          <mxGeometry width="30" height="30" as="geometry">
            <mxRectangle width="30" height="30" as="alternateBounds" />
          </mxGeometry>
        </mxCell>
        <mxCell id="2w68A3cYPR3M8UwBagFj-155" value="user_id" style="shape=partialRectangle;overflow=hidden;connectable=0;fillColor=none;top=0;left=0;bottom=0;right=0;align=left;spacingLeft=6;textShadow=0;fontColor=light-dark(#000000,#000000);strokeColor=light-dark(#000000,#000000);rounded=1;" parent="2w68A3cYPR3M8UwBagFj-153" vertex="1">
          <mxGeometry x="30" width="220" height="30" as="geometry">
            <mxRectangle width="220" height="30" as="alternateBounds" />
          </mxGeometry>
        </mxCell>
        <mxCell id="2w68A3cYPR3M8UwBagFj-156" value="" style="shape=partialRectangle;collapsible=0;dropTarget=0;pointerEvents=0;fillColor=none;points=[[0,0.5],[1,0.5]];portConstraint=eastwest;top=0;left=0;right=0;bottom=0;textShadow=0;fontColor=light-dark(#000000,#000000);strokeColor=light-dark(#000000,#000000);rounded=1;" parent="2w68A3cYPR3M8UwBagFj-149" vertex="1">
          <mxGeometry y="90" width="250" height="30" as="geometry" />
        </mxCell>
        <mxCell id="2w68A3cYPR3M8UwBagFj-157" value="FK" style="shape=partialRectangle;overflow=hidden;connectable=0;fillColor=none;top=0;left=0;bottom=0;right=0;textShadow=0;fontColor=light-dark(#000000,#000000);strokeColor=light-dark(#000000,#000000);rounded=1;" parent="2w68A3cYPR3M8UwBagFj-156" vertex="1">
          <mxGeometry width="30" height="30" as="geometry">
            <mxRectangle width="30" height="30" as="alternateBounds" />
          </mxGeometry>
        </mxCell>
        <mxCell id="2w68A3cYPR3M8UwBagFj-158" value="event_id" style="shape=partialRectangle;overflow=hidden;connectable=0;fillColor=none;top=0;left=0;bottom=0;right=0;align=left;spacingLeft=6;textShadow=0;fontColor=light-dark(#000000,#000000);strokeColor=light-dark(#000000,#000000);rounded=1;" parent="2w68A3cYPR3M8UwBagFj-156" vertex="1">
          <mxGeometry x="30" width="220" height="30" as="geometry">
            <mxRectangle width="220" height="30" as="alternateBounds" />
          </mxGeometry>
        </mxCell>
        <mxCell id="qVUILYzi2cgCOJXywEAA-43" style="shape=partialRectangle;collapsible=0;dropTarget=0;pointerEvents=0;fillColor=none;points=[[0,0.5],[1,0.5]];portConstraint=eastwest;top=0;left=0;right=0;bottom=0;textShadow=0;fontColor=light-dark(#000000,#000000);strokeColor=light-dark(#000000,#000000);rounded=1;" vertex="1" parent="2w68A3cYPR3M8UwBagFj-149">
          <mxGeometry y="120" width="250" height="30" as="geometry" />
        </mxCell>
        <mxCell id="qVUILYzi2cgCOJXywEAA-44" value="FK" style="shape=partialRectangle;overflow=hidden;connectable=0;fillColor=none;top=0;left=0;bottom=0;right=0;textShadow=0;fontColor=light-dark(#000000,#000000);strokeColor=light-dark(#000000,#000000);rounded=1;" vertex="1" parent="qVUILYzi2cgCOJXywEAA-43">
          <mxGeometry width="30" height="30" as="geometry">
            <mxRectangle width="30" height="30" as="alternateBounds" />
          </mxGeometry>
        </mxCell>
        <mxCell id="qVUILYzi2cgCOJXywEAA-45" value="reward_id" style="shape=partialRectangle;overflow=hidden;connectable=0;fillColor=none;top=0;left=0;bottom=0;right=0;align=left;spacingLeft=6;textShadow=0;fontColor=light-dark(#000000,#000000);strokeColor=light-dark(#000000,#000000);rounded=1;" vertex="1" parent="qVUILYzi2cgCOJXywEAA-43">
          <mxGeometry x="30" width="220" height="30" as="geometry">
            <mxRectangle width="220" height="30" as="alternateBounds" />
          </mxGeometry>
        </mxCell>
        <mxCell id="2w68A3cYPR3M8UwBagFj-159" style="shape=partialRectangle;collapsible=0;dropTarget=0;pointerEvents=0;fillColor=none;points=[[0,0.5],[1,0.5]];portConstraint=eastwest;top=0;left=0;right=0;bottom=0;textShadow=0;fontColor=light-dark(#000000,#000000);strokeColor=light-dark(#000000,#000000);rounded=1;" parent="2w68A3cYPR3M8UwBagFj-149" vertex="1">
          <mxGeometry y="150" width="250" height="30" as="geometry" />
        </mxCell>
        <mxCell id="2w68A3cYPR3M8UwBagFj-160" value="" style="shape=partialRectangle;overflow=hidden;connectable=0;fillColor=none;top=0;left=0;bottom=0;right=0;textShadow=0;fontColor=light-dark(#000000,#000000);strokeColor=light-dark(#000000,#000000);rounded=1;" parent="2w68A3cYPR3M8UwBagFj-159" vertex="1">
          <mxGeometry width="30" height="30" as="geometry">
            <mxRectangle width="30" height="30" as="alternateBounds" />
          </mxGeometry>
        </mxCell>
        <mxCell id="2w68A3cYPR3M8UwBagFj-161" value="status" style="shape=partialRectangle;overflow=hidden;connectable=0;fillColor=none;top=0;left=0;bottom=0;right=0;align=left;spacingLeft=6;textShadow=0;fontColor=light-dark(#000000,#000000);strokeColor=light-dark(#000000,#000000);rounded=1;" parent="2w68A3cYPR3M8UwBagFj-159" vertex="1">
          <mxGeometry x="30" width="220" height="30" as="geometry">
            <mxRectangle width="220" height="30" as="alternateBounds" />
          </mxGeometry>
        </mxCell>
        <mxCell id="2w68A3cYPR3M8UwBagFj-162" style="shape=partialRectangle;collapsible=0;dropTarget=0;pointerEvents=0;fillColor=none;points=[[0,0.5],[1,0.5]];portConstraint=eastwest;top=0;left=0;right=0;bottom=0;textShadow=0;fontColor=light-dark(#000000,#000000);strokeColor=light-dark(#000000,#000000);rounded=1;" parent="2w68A3cYPR3M8UwBagFj-149" vertex="1">
          <mxGeometry y="180" width="250" height="30" as="geometry" />
        </mxCell>
        <mxCell id="2w68A3cYPR3M8UwBagFj-163" style="shape=partialRectangle;overflow=hidden;connectable=0;fillColor=none;top=0;left=0;bottom=0;right=0;textShadow=0;fontColor=light-dark(#000000,#000000);strokeColor=light-dark(#000000,#000000);rounded=1;" parent="2w68A3cYPR3M8UwBagFj-162" vertex="1">
          <mxGeometry width="30" height="30" as="geometry">
            <mxRectangle width="30" height="30" as="alternateBounds" />
          </mxGeometry>
        </mxCell>
        <mxCell id="2w68A3cYPR3M8UwBagFj-164" value="exchanged_at" style="shape=partialRectangle;overflow=hidden;connectable=0;fillColor=none;top=0;left=0;bottom=0;right=0;align=left;spacingLeft=6;textShadow=0;fontColor=light-dark(#000000,#000000);strokeColor=light-dark(#000000,#000000);rounded=1;" parent="2w68A3cYPR3M8UwBagFj-162" vertex="1">
          <mxGeometry x="30" width="220" height="30" as="geometry">
            <mxRectangle width="220" height="30" as="alternateBounds" />
          </mxGeometry>
        </mxCell>
        <mxCell id="KlMqCPawbF4SIBuH-tO9-31" style="shape=partialRectangle;collapsible=0;dropTarget=0;pointerEvents=0;fillColor=none;points=[[0,0.5],[1,0.5]];portConstraint=eastwest;top=0;left=0;right=0;bottom=0;textShadow=0;fontColor=light-dark(#000000,#000000);strokeColor=light-dark(#000000,#000000);rounded=1;" parent="2w68A3cYPR3M8UwBagFj-149" vertex="1">
          <mxGeometry y="210" width="250" height="30" as="geometry" />
        </mxCell>
        <mxCell id="KlMqCPawbF4SIBuH-tO9-32" style="shape=partialRectangle;overflow=hidden;connectable=0;fillColor=none;top=0;left=0;bottom=0;right=0;textShadow=0;fontColor=light-dark(#000000,#000000);strokeColor=light-dark(#000000,#000000);rounded=1;" parent="KlMqCPawbF4SIBuH-tO9-31" vertex="1">
          <mxGeometry width="30" height="30" as="geometry">
            <mxRectangle width="30" height="30" as="alternateBounds" />
          </mxGeometry>
        </mxCell>
        <mxCell id="KlMqCPawbF4SIBuH-tO9-33" value="created_at" style="shape=partialRectangle;overflow=hidden;connectable=0;fillColor=none;top=0;left=0;bottom=0;right=0;align=left;spacingLeft=6;textShadow=0;fontColor=light-dark(#000000,#000000);strokeColor=light-dark(#000000,#000000);rounded=1;" parent="KlMqCPawbF4SIBuH-tO9-31" vertex="1">
          <mxGeometry x="30" width="220" height="30" as="geometry">
            <mxRectangle width="220" height="30" as="alternateBounds" />
          </mxGeometry>
        </mxCell>
        <mxCell id="2w68A3cYPR3M8UwBagFj-165" value="payment_methods" style="shape=table;startSize=30;container=1;collapsible=1;childLayout=tableLayout;fixedRows=1;rowLines=0;fontStyle=1;align=center;resizeLast=1;textShadow=0;fontColor=light-dark(#000000,#000000);strokeColor=light-dark(#000000,#000000);fillColor=light-dark(#FFFFFF,#F19C99);rounded=1;" parent="1" vertex="1">
          <mxGeometry x="-800" y="210" width="250" height="220" as="geometry" />
        </mxCell>
        <mxCell id="2w68A3cYPR3M8UwBagFj-166" value="" style="shape=partialRectangle;collapsible=0;dropTarget=0;pointerEvents=0;fillColor=none;points=[[0,0.5],[1,0.5]];portConstraint=eastwest;top=0;left=0;right=0;bottom=1;textShadow=0;fontColor=light-dark(#000000,#000000);strokeColor=light-dark(#000000,#000000);rounded=1;" parent="2w68A3cYPR3M8UwBagFj-165" vertex="1">
          <mxGeometry y="30" width="250" height="30" as="geometry" />
        </mxCell>
        <mxCell id="2w68A3cYPR3M8UwBagFj-167" value="PK" style="shape=partialRectangle;overflow=hidden;connectable=0;fillColor=none;top=0;left=0;bottom=0;right=0;fontStyle=1;textShadow=0;fontColor=light-dark(#000000,#000000);strokeColor=light-dark(#000000,#000000);rounded=1;" parent="2w68A3cYPR3M8UwBagFj-166" vertex="1">
          <mxGeometry width="30" height="30" as="geometry">
            <mxRectangle width="30" height="30" as="alternateBounds" />
          </mxGeometry>
        </mxCell>
        <mxCell id="2w68A3cYPR3M8UwBagFj-168" value="id" style="shape=partialRectangle;overflow=hidden;connectable=0;fillColor=none;top=0;left=0;bottom=0;right=0;align=left;spacingLeft=6;fontStyle=5;textShadow=0;fontColor=light-dark(#000000,#000000);strokeColor=light-dark(#000000,#000000);rounded=1;" parent="2w68A3cYPR3M8UwBagFj-166" vertex="1">
          <mxGeometry x="30" width="220" height="30" as="geometry">
            <mxRectangle width="220" height="30" as="alternateBounds" />
          </mxGeometry>
        </mxCell>
        <mxCell id="2w68A3cYPR3M8UwBagFj-169" value="" style="shape=partialRectangle;collapsible=0;dropTarget=0;pointerEvents=0;fillColor=none;points=[[0,0.5],[1,0.5]];portConstraint=eastwest;top=0;left=0;right=0;bottom=0;textShadow=0;fontColor=light-dark(#000000,#000000);strokeColor=light-dark(#000000,#000000);rounded=1;" parent="2w68A3cYPR3M8UwBagFj-165" vertex="1">
          <mxGeometry y="60" width="250" height="30" as="geometry" />
        </mxCell>
        <mxCell id="2w68A3cYPR3M8UwBagFj-170" value="FK" style="shape=partialRectangle;overflow=hidden;connectable=0;fillColor=none;top=0;left=0;bottom=0;right=0;textShadow=0;fontColor=light-dark(#000000,#000000);strokeColor=light-dark(#000000,#000000);rounded=1;" parent="2w68A3cYPR3M8UwBagFj-169" vertex="1">
          <mxGeometry width="30" height="30" as="geometry">
            <mxRectangle width="30" height="30" as="alternateBounds" />
          </mxGeometry>
        </mxCell>
        <mxCell id="2w68A3cYPR3M8UwBagFj-171" value="nursery_id" style="shape=partialRectangle;overflow=hidden;connectable=0;fillColor=none;top=0;left=0;bottom=0;right=0;align=left;spacingLeft=6;textShadow=0;fontColor=light-dark(#000000,#000000);strokeColor=light-dark(#000000,#000000);rounded=1;" parent="2w68A3cYPR3M8UwBagFj-169" vertex="1">
          <mxGeometry x="30" width="220" height="30" as="geometry">
            <mxRectangle width="220" height="30" as="alternateBounds" />
          </mxGeometry>
        </mxCell>
        <mxCell id="2w68A3cYPR3M8UwBagFj-172" value="" style="shape=partialRectangle;collapsible=0;dropTarget=0;pointerEvents=0;fillColor=none;points=[[0,0.5],[1,0.5]];portConstraint=eastwest;top=0;left=0;right=0;bottom=0;textShadow=0;fontColor=light-dark(#000000,#000000);strokeColor=light-dark(#000000,#000000);rounded=1;" parent="2w68A3cYPR3M8UwBagFj-165" vertex="1">
          <mxGeometry y="90" width="250" height="30" as="geometry" />
        </mxCell>
        <mxCell id="2w68A3cYPR3M8UwBagFj-173" value="" style="shape=partialRectangle;overflow=hidden;connectable=0;fillColor=none;top=0;left=0;bottom=0;right=0;textShadow=0;fontColor=light-dark(#000000,#000000);strokeColor=light-dark(#000000,#000000);rounded=1;" parent="2w68A3cYPR3M8UwBagFj-172" vertex="1">
          <mxGeometry width="30" height="30" as="geometry">
            <mxRectangle width="30" height="30" as="alternateBounds" />
          </mxGeometry>
        </mxCell>
        <mxCell id="2w68A3cYPR3M8UwBagFj-174" value="stripe_customer_id" style="shape=partialRectangle;overflow=hidden;connectable=0;fillColor=none;top=0;left=0;bottom=0;right=0;align=left;spacingLeft=6;textShadow=0;fontColor=light-dark(#000000,#000000);strokeColor=light-dark(#000000,#000000);rounded=1;" parent="2w68A3cYPR3M8UwBagFj-172" vertex="1">
          <mxGeometry x="30" width="220" height="30" as="geometry">
            <mxRectangle width="220" height="30" as="alternateBounds" />
          </mxGeometry>
        </mxCell>
        <mxCell id="2w68A3cYPR3M8UwBagFj-175" style="shape=partialRectangle;collapsible=0;dropTarget=0;pointerEvents=0;fillColor=none;points=[[0,0.5],[1,0.5]];portConstraint=eastwest;top=0;left=0;right=0;bottom=0;textShadow=0;fontColor=light-dark(#000000,#000000);strokeColor=light-dark(#000000,#000000);rounded=1;" parent="2w68A3cYPR3M8UwBagFj-165" vertex="1">
          <mxGeometry y="120" width="250" height="30" as="geometry" />
        </mxCell>
        <mxCell id="2w68A3cYPR3M8UwBagFj-176" value="" style="shape=partialRectangle;overflow=hidden;connectable=0;fillColor=none;top=0;left=0;bottom=0;right=0;textShadow=0;fontColor=light-dark(#000000,#000000);strokeColor=light-dark(#000000,#000000);rounded=1;" parent="2w68A3cYPR3M8UwBagFj-175" vertex="1">
          <mxGeometry width="30" height="30" as="geometry">
            <mxRectangle width="30" height="30" as="alternateBounds" />
          </mxGeometry>
        </mxCell>
        <mxCell id="2w68A3cYPR3M8UwBagFj-177" value="stripe_payment_method_id" style="shape=partialRectangle;overflow=hidden;connectable=0;fillColor=none;top=0;left=0;bottom=0;right=0;align=left;spacingLeft=6;textShadow=0;fontColor=light-dark(#000000,#000000);strokeColor=light-dark(#000000,#000000);rounded=1;" parent="2w68A3cYPR3M8UwBagFj-175" vertex="1">
          <mxGeometry x="30" width="220" height="30" as="geometry">
            <mxRectangle width="220" height="30" as="alternateBounds" />
          </mxGeometry>
        </mxCell>
        <mxCell id="2w68A3cYPR3M8UwBagFj-178" style="shape=partialRectangle;collapsible=0;dropTarget=0;pointerEvents=0;fillColor=none;points=[[0,0.5],[1,0.5]];portConstraint=eastwest;top=0;left=0;right=0;bottom=0;textShadow=0;fontColor=light-dark(#000000,#000000);strokeColor=light-dark(#000000,#000000);rounded=1;" parent="2w68A3cYPR3M8UwBagFj-165" vertex="1">
          <mxGeometry y="150" width="250" height="30" as="geometry" />
        </mxCell>
        <mxCell id="2w68A3cYPR3M8UwBagFj-179" style="shape=partialRectangle;overflow=hidden;connectable=0;fillColor=none;top=0;left=0;bottom=0;right=0;textShadow=0;fontColor=light-dark(#000000,#000000);strokeColor=light-dark(#000000,#000000);rounded=1;" parent="2w68A3cYPR3M8UwBagFj-178" vertex="1">
          <mxGeometry width="30" height="30" as="geometry">
            <mxRectangle width="30" height="30" as="alternateBounds" />
          </mxGeometry>
        </mxCell>
        <mxCell id="2w68A3cYPR3M8UwBagFj-180" value="is_active" style="shape=partialRectangle;overflow=hidden;connectable=0;fillColor=none;top=0;left=0;bottom=0;right=0;align=left;spacingLeft=6;textShadow=0;fontColor=light-dark(#000000,#000000);strokeColor=light-dark(#000000,#000000);rounded=1;" parent="2w68A3cYPR3M8UwBagFj-178" vertex="1">
          <mxGeometry x="30" width="220" height="30" as="geometry">
            <mxRectangle width="220" height="30" as="alternateBounds" />
          </mxGeometry>
        </mxCell>
        <mxCell id="90S8i4eGVS4S6o-vOTUU-60" style="shape=partialRectangle;collapsible=0;dropTarget=0;pointerEvents=0;fillColor=none;points=[[0,0.5],[1,0.5]];portConstraint=eastwest;top=0;left=0;right=0;bottom=0;textShadow=0;fontColor=light-dark(#000000,#000000);strokeColor=light-dark(#000000,#000000);rounded=1;" parent="2w68A3cYPR3M8UwBagFj-165" vertex="1">
          <mxGeometry y="180" width="250" height="30" as="geometry" />
        </mxCell>
        <mxCell id="90S8i4eGVS4S6o-vOTUU-61" style="shape=partialRectangle;overflow=hidden;connectable=0;fillColor=none;top=0;left=0;bottom=0;right=0;textShadow=0;fontColor=light-dark(#000000,#000000);strokeColor=light-dark(#000000,#000000);rounded=1;" parent="90S8i4eGVS4S6o-vOTUU-60" vertex="1">
          <mxGeometry width="30" height="30" as="geometry">
            <mxRectangle width="30" height="30" as="alternateBounds" />
          </mxGeometry>
        </mxCell>
        <mxCell id="90S8i4eGVS4S6o-vOTUU-62" value="created_at" style="shape=partialRectangle;overflow=hidden;connectable=0;fillColor=none;top=0;left=0;bottom=0;right=0;align=left;spacingLeft=6;textShadow=0;fontColor=light-dark(#000000,#000000);strokeColor=light-dark(#000000,#000000);rounded=1;" parent="90S8i4eGVS4S6o-vOTUU-60" vertex="1">
          <mxGeometry x="30" width="220" height="30" as="geometry">
            <mxRectangle width="220" height="30" as="alternateBounds" />
          </mxGeometry>
        </mxCell>
        <mxCell id="2w68A3cYPR3M8UwBagFj-195" value="" style="edgeStyle=orthogonalEdgeStyle;fontSize=12;html=1;endArrow=none;rounded=1;strokeColor=light-dark(#000000,#000000);startArrow=ERoneToMany;startFill=0;entryX=1;entryY=0.5;entryDx=0;entryDy=0;exitX=0;exitY=0.5;exitDx=0;exitDy=0;" parent="1" source="90S8i4eGVS4S6o-vOTUU-36" target="C-vyLk0tnHw3VtMMgP7b-24" edge="1">
          <mxGeometry width="100" height="100" relative="1" as="geometry">
            <mxPoint x="-60" y="290" as="sourcePoint" />
            <mxPoint x="-510" y="230" as="targetPoint" />
            <Array as="points">
              <mxPoint x="-110" y="505" />
              <mxPoint x="-110" y="85" />
            </Array>
          </mxGeometry>
        </mxCell>
        <mxCell id="2w68A3cYPR3M8UwBagFj-196" style="edgeStyle=orthogonalEdgeStyle;rounded=1;orthogonalLoop=1;jettySize=auto;html=1;entryX=0;entryY=0.5;entryDx=0;entryDy=0;strokeColor=light-dark(#000000,#000000);endArrow=ERoneToMany;endFill=0;exitX=1;exitY=0.5;exitDx=0;exitDy=0;" parent="1" source="C-vyLk0tnHw3VtMMgP7b-3" target="90S8i4eGVS4S6o-vOTUU-99" edge="1">
          <mxGeometry relative="1" as="geometry">
            <mxPoint x="390" y="60" as="sourcePoint" />
            <Array as="points">
              <mxPoint x="290" y="85" />
              <mxPoint x="290" y="715" />
            </Array>
            <mxPoint x="480" y="615" as="targetPoint" />
          </mxGeometry>
        </mxCell>
        <mxCell id="2w68A3cYPR3M8UwBagFj-208" style="edgeStyle=orthogonalEdgeStyle;rounded=1;orthogonalLoop=1;jettySize=auto;html=1;strokeColor=light-dark(#000000,#000000);endArrow=ERoneToMany;endFill=0;entryX=0;entryY=0.5;entryDx=0;entryDy=0;exitX=1;exitY=0.5;exitDx=0;exitDy=0;" parent="1" source="C-vyLk0tnHw3VtMMgP7b-3" target="C-vyLk0tnHw3VtMMgP7b-17" edge="1">
          <mxGeometry relative="1" as="geometry">
            <mxPoint x="410" y="80" as="sourcePoint" />
            <mxPoint x="480" y="185" as="targetPoint" />
            <Array as="points">
              <mxPoint x="300" y="85" />
              <mxPoint x="300" y="395" />
            </Array>
          </mxGeometry>
        </mxCell>
        <mxCell id="2w68A3cYPR3M8UwBagFj-212" style="edgeStyle=orthogonalEdgeStyle;rounded=1;orthogonalLoop=1;jettySize=auto;html=1;strokeColor=light-dark(#000000,#000000);endArrow=ERoneToMany;endFill=0;exitX=1;exitY=0.5;exitDx=0;exitDy=0;entryX=0;entryY=0.5;entryDx=0;entryDy=0;" parent="1" source="C-vyLk0tnHw3VtMMgP7b-3" target="2w68A3cYPR3M8UwBagFj-105" edge="1">
          <mxGeometry relative="1" as="geometry">
            <mxPoint x="430" y="70" as="sourcePoint" />
            <mxPoint x="420" y="50" as="targetPoint" />
            <Array as="points">
              <mxPoint x="310" y="85" />
              <mxPoint x="310" y="115" />
            </Array>
          </mxGeometry>
        </mxCell>
        <mxCell id="2w68A3cYPR3M8UwBagFj-240" value="&lt;span style=&quot;color: rgba(0, 0, 0, 0); font-family: monospace; font-size: 0px; text-align: start; background-color: rgb(27, 29, 30);&quot;&gt;%3CmxGraphModel%3E%3Croot%3E%3CmxCell%20id%3D%220%22%2F%3E%3CmxCell%20id%3D%221%22%20parent%3D%220%22%2F%3E%3CmxCell%20id%3D%222%22%20style%3D%22edgeStyle%3DorthogonalEdgeStyle%3Brounded%3D1%3BorthogonalLoop%3D1%3BjettySize%3Dauto%3Bhtml%3D1%3BexitX%3D1%3BexitY%3D0.5%3BexitDx%3D0%3BexitDy%3D0%3BstrokeColor%3Dlight-dark(%23000000%2C%23000000)%3BendArrow%3DERoneToMany%3BendFill%3D0%3BentryX%3D0%3BentryY%3D0.5%3BentryDx%3D0%3BentryDy%3D0%3B%22%20edge%3D%221%22%20parent%3D%221%22%3E%3CmxGeometry%20relative%3D%221%22%20as%3D%22geometry%22%3E%3CmxPoint%20x%3D%22-10%22%20y%3D%22133%22%20as%3D%22sourcePoint%22%2F%3E%3CmxPoint%20x%3D%2250%22%20y%3D%22585%22%20as%3D%22targetPoint%22%2F%3E%3CArray%20as%3D%22points%22%3E%3CmxPoint%20x%3D%2210%22%20y%3D%22133%22%2F%3E%3CmxPoint%20x%3D%2210%22%20y%3D%22585%22%2F%3E%3C%2FArray%3E%3C%2FmxGeometry%3E%3C%2FmxCell%3E%3C%2Froot%3E%3C%2FmxGraphModel%3E&lt;/span&gt;" style="edgeStyle=orthogonalEdgeStyle;rounded=1;orthogonalLoop=1;jettySize=auto;html=1;strokeColor=light-dark(#000000,#000000);endArrow=ERoneToMany;endFill=0;exitX=1;exitY=0.5;exitDx=0;exitDy=0;entryX=0;entryY=0.5;entryDx=0;entryDy=0;" parent="1" source="C-vyLk0tnHw3VtMMgP7b-24" target="2w68A3cYPR3M8UwBagFj-45" edge="1">
          <mxGeometry relative="1" as="geometry">
            <mxPoint x="-60" y="325" as="sourcePoint" />
            <mxPoint x="-110" y="750" as="targetPoint" />
            <Array as="points">
              <mxPoint x="-140" y="85" />
              <mxPoint x="-140" y="695" />
            </Array>
          </mxGeometry>
        </mxCell>
        <mxCell id="2w68A3cYPR3M8UwBagFj-244" value="" style="edgeStyle=orthogonalEdgeStyle;fontSize=12;html=1;endArrow=none;rounded=1;strokeColor=light-dark(#000000,#000000);startArrow=ERoneToMany;startFill=0;exitX=0;exitY=0.5;exitDx=0;exitDy=0;entryX=0;entryY=0.5;entryDx=0;entryDy=0;" parent="1" source="2w68A3cYPR3M8UwBagFj-166" target="90S8i4eGVS4S6o-vOTUU-2" edge="1">
          <mxGeometry width="100" height="100" relative="1" as="geometry">
            <mxPoint x="-480" y="140" as="sourcePoint" />
            <mxPoint x="-510" y="250" as="targetPoint" />
            <Array as="points">
              <mxPoint x="-820" y="255" />
              <mxPoint x="-820" y="80" />
              <mxPoint x="-800" y="80" />
            </Array>
          </mxGeometry>
        </mxCell>
        <mxCell id="90S8i4eGVS4S6o-vOTUU-1" value="nurseries" style="shape=table;startSize=30;container=1;collapsible=1;childLayout=tableLayout;fixedRows=1;rowLines=0;fontStyle=1;align=center;resizeLast=1;textShadow=0;fontColor=light-dark(#000000,#000000);strokeColor=light-dark(#000000,#000000);labelBackgroundColor=none;fillColor=light-dark(#FFFFFF,#FFB570);rounded=1;" parent="1" vertex="1">
          <mxGeometry x="-800" y="40" width="250" height="130" as="geometry" />
        </mxCell>
        <mxCell id="90S8i4eGVS4S6o-vOTUU-2" value="" style="shape=partialRectangle;collapsible=0;dropTarget=0;pointerEvents=0;fillColor=none;points=[[0,0.5],[1,0.5]];portConstraint=eastwest;top=0;left=0;right=0;bottom=1;textShadow=0;fontColor=light-dark(#000000,#000000);strokeColor=light-dark(#000000,#000000);rounded=1;" parent="90S8i4eGVS4S6o-vOTUU-1" vertex="1">
          <mxGeometry y="30" width="250" height="30" as="geometry" />
        </mxCell>
        <mxCell id="90S8i4eGVS4S6o-vOTUU-3" value="PK" style="shape=partialRectangle;overflow=hidden;connectable=0;fillColor=none;top=0;left=0;bottom=0;right=0;fontStyle=1;textShadow=0;fontColor=light-dark(#000000,#000000);strokeColor=light-dark(#000000,#000000);rounded=1;" parent="90S8i4eGVS4S6o-vOTUU-2" vertex="1">
          <mxGeometry width="30" height="30" as="geometry">
            <mxRectangle width="30" height="30" as="alternateBounds" />
          </mxGeometry>
        </mxCell>
        <mxCell id="90S8i4eGVS4S6o-vOTUU-4" value="id" style="shape=partialRectangle;overflow=hidden;connectable=0;fillColor=none;top=0;left=0;bottom=0;right=0;align=left;spacingLeft=6;fontStyle=5;textShadow=0;fontColor=light-dark(#000000,#000000);strokeColor=light-dark(#000000,#000000);rounded=1;" parent="90S8i4eGVS4S6o-vOTUU-2" vertex="1">
          <mxGeometry x="30" width="220" height="30" as="geometry">
            <mxRectangle width="220" height="30" as="alternateBounds" />
          </mxGeometry>
        </mxCell>
        <mxCell id="90S8i4eGVS4S6o-vOTUU-5" value="" style="shape=partialRectangle;collapsible=0;dropTarget=0;pointerEvents=0;fillColor=none;points=[[0,0.5],[1,0.5]];portConstraint=eastwest;top=0;left=0;right=0;bottom=0;textShadow=0;fontColor=light-dark(#000000,#000000);strokeColor=light-dark(#000000,#000000);rounded=1;" parent="90S8i4eGVS4S6o-vOTUU-1" vertex="1">
          <mxGeometry y="60" width="250" height="30" as="geometry" />
        </mxCell>
        <mxCell id="90S8i4eGVS4S6o-vOTUU-6" value="" style="shape=partialRectangle;overflow=hidden;connectable=0;fillColor=none;top=0;left=0;bottom=0;right=0;textShadow=0;fontColor=light-dark(#000000,#000000);strokeColor=light-dark(#000000,#000000);rounded=1;" parent="90S8i4eGVS4S6o-vOTUU-5" vertex="1">
          <mxGeometry width="30" height="30" as="geometry">
            <mxRectangle width="30" height="30" as="alternateBounds" />
          </mxGeometry>
        </mxCell>
        <mxCell id="90S8i4eGVS4S6o-vOTUU-7" value="name" style="shape=partialRectangle;overflow=hidden;connectable=0;fillColor=none;top=0;left=0;bottom=0;right=0;align=left;spacingLeft=6;textShadow=0;fontColor=light-dark(#000000,#000000);strokeColor=light-dark(#000000,#000000);rounded=1;" parent="90S8i4eGVS4S6o-vOTUU-5" vertex="1">
          <mxGeometry x="30" width="220" height="30" as="geometry">
            <mxRectangle width="220" height="30" as="alternateBounds" />
          </mxGeometry>
        </mxCell>
        <mxCell id="KlMqCPawbF4SIBuH-tO9-1" style="shape=partialRectangle;collapsible=0;dropTarget=0;pointerEvents=0;fillColor=none;points=[[0,0.5],[1,0.5]];portConstraint=eastwest;top=0;left=0;right=0;bottom=0;textShadow=0;fontColor=light-dark(#000000,#000000);strokeColor=light-dark(#000000,#000000);rounded=1;" parent="90S8i4eGVS4S6o-vOTUU-1" vertex="1">
          <mxGeometry y="90" width="250" height="30" as="geometry" />
        </mxCell>
        <mxCell id="KlMqCPawbF4SIBuH-tO9-2" style="shape=partialRectangle;overflow=hidden;connectable=0;fillColor=none;top=0;left=0;bottom=0;right=0;textShadow=0;fontColor=light-dark(#000000,#000000);strokeColor=light-dark(#000000,#000000);rounded=1;" parent="KlMqCPawbF4SIBuH-tO9-1" vertex="1">
          <mxGeometry width="30" height="30" as="geometry">
            <mxRectangle width="30" height="30" as="alternateBounds" />
          </mxGeometry>
        </mxCell>
        <mxCell id="KlMqCPawbF4SIBuH-tO9-3" value="created_at" style="shape=partialRectangle;overflow=hidden;connectable=0;fillColor=none;top=0;left=0;bottom=0;right=0;align=left;spacingLeft=6;textShadow=0;fontColor=light-dark(#000000,#000000);strokeColor=light-dark(#000000,#000000);rounded=1;" parent="KlMqCPawbF4SIBuH-tO9-1" vertex="1">
          <mxGeometry x="30" width="220" height="30" as="geometry">
            <mxRectangle width="220" height="30" as="alternateBounds" />
          </mxGeometry>
        </mxCell>
        <mxCell id="90S8i4eGVS4S6o-vOTUU-20" value="" style="edgeStyle=orthogonalEdgeStyle;fontSize=12;html=1;endArrow=none;rounded=1;strokeColor=light-dark(#000000,#000000);startArrow=ERoneToMany;startFill=0;entryX=1;entryY=0.5;entryDx=0;entryDy=0;exitX=0;exitY=0.5;exitDx=0;exitDy=0;" parent="1" source="90S8i4eGVS4S6o-vOTUU-17" target="90S8i4eGVS4S6o-vOTUU-2" edge="1">
          <mxGeometry width="100" height="100" relative="1" as="geometry">
            <mxPoint x="-440" y="100" as="sourcePoint" />
            <mxPoint x="-520" y="90" as="targetPoint" />
            <Array as="points">
              <mxPoint x="-520" y="115" />
              <mxPoint x="-520" y="85" />
            </Array>
          </mxGeometry>
        </mxCell>
        <mxCell id="90S8i4eGVS4S6o-vOTUU-50" style="edgeStyle=orthogonalEdgeStyle;rounded=1;orthogonalLoop=1;jettySize=auto;html=1;strokeColor=light-dark(#000000,#000000);endArrow=ERoneToMany;endFill=0;exitX=1;exitY=0.5;exitDx=0;exitDy=0;entryX=1;entryY=0.5;entryDx=0;entryDy=0;" parent="1" source="2w68A3cYPR3M8UwBagFj-105" target="90S8i4eGVS4S6o-vOTUU-43" edge="1">
          <mxGeometry relative="1" as="geometry">
            <mxPoint x="410" y="340" as="sourcePoint" />
            <mxPoint x="610" y="370" as="targetPoint" />
            <Array as="points">
              <mxPoint x="740" y="115" />
              <mxPoint x="740" y="455" />
            </Array>
          </mxGeometry>
        </mxCell>
        <mxCell id="90S8i4eGVS4S6o-vOTUU-76" value="event_reactions" style="shape=table;startSize=30;container=1;collapsible=1;childLayout=tableLayout;fixedRows=1;rowLines=0;fontStyle=1;align=center;resizeLast=1;textShadow=0;fontColor=light-dark(#000000,#000000);strokeColor=light-dark(#000000,#000000);fillColor=light-dark(#FFFFFF,#97D077);rounded=1;" parent="1" vertex="1">
          <mxGeometry x="460" y="640" width="250" height="220" as="geometry" />
        </mxCell>
        <mxCell id="90S8i4eGVS4S6o-vOTUU-77" value="" style="shape=partialRectangle;collapsible=0;dropTarget=0;pointerEvents=0;fillColor=none;points=[[0,0.5],[1,0.5]];portConstraint=eastwest;top=0;left=0;right=0;bottom=1;textShadow=0;fontColor=light-dark(#000000,#000000);strokeColor=light-dark(#000000,#000000);rounded=1;" parent="90S8i4eGVS4S6o-vOTUU-76" vertex="1">
          <mxGeometry y="30" width="250" height="30" as="geometry" />
        </mxCell>
        <mxCell id="90S8i4eGVS4S6o-vOTUU-78" value="PK" style="shape=partialRectangle;overflow=hidden;connectable=0;fillColor=none;top=0;left=0;bottom=0;right=0;fontStyle=1;textShadow=0;fontColor=light-dark(#000000,#000000);strokeColor=light-dark(#000000,#000000);rounded=1;" parent="90S8i4eGVS4S6o-vOTUU-77" vertex="1">
          <mxGeometry width="30" height="30" as="geometry">
            <mxRectangle width="30" height="30" as="alternateBounds" />
          </mxGeometry>
        </mxCell>
        <mxCell id="90S8i4eGVS4S6o-vOTUU-79" value="id" style="shape=partialRectangle;overflow=hidden;connectable=0;fillColor=none;top=0;left=0;bottom=0;right=0;align=left;spacingLeft=6;fontStyle=5;textShadow=0;fontColor=light-dark(#000000,#000000);strokeColor=light-dark(#000000,#000000);rounded=1;" parent="90S8i4eGVS4S6o-vOTUU-77" vertex="1">
          <mxGeometry x="30" width="220" height="30" as="geometry">
            <mxRectangle width="220" height="30" as="alternateBounds" />
          </mxGeometry>
        </mxCell>
        <mxCell id="90S8i4eGVS4S6o-vOTUU-99" value="" style="shape=partialRectangle;collapsible=0;dropTarget=0;pointerEvents=0;fillColor=none;points=[[0,0.5],[1,0.5]];portConstraint=eastwest;top=0;left=0;right=0;bottom=0;textShadow=0;fontColor=light-dark(#000000,#000000);strokeColor=light-dark(#000000,#000000);rounded=1;" parent="90S8i4eGVS4S6o-vOTUU-76" vertex="1">
          <mxGeometry y="60" width="250" height="30" as="geometry" />
        </mxCell>
        <mxCell id="90S8i4eGVS4S6o-vOTUU-100" value="FK" style="shape=partialRectangle;overflow=hidden;connectable=0;fillColor=none;top=0;left=0;bottom=0;right=0;textShadow=0;fontColor=light-dark(#000000,#000000);strokeColor=light-dark(#000000,#000000);rounded=1;" parent="90S8i4eGVS4S6o-vOTUU-99" vertex="1">
          <mxGeometry width="30" height="30" as="geometry">
            <mxRectangle width="30" height="30" as="alternateBounds" />
          </mxGeometry>
        </mxCell>
        <mxCell id="90S8i4eGVS4S6o-vOTUU-101" value="event_id" style="shape=partialRectangle;overflow=hidden;connectable=0;fillColor=none;top=0;left=0;bottom=0;right=0;align=left;spacingLeft=6;textShadow=0;fontColor=light-dark(#000000,#000000);strokeColor=light-dark(#000000,#000000);rounded=1;" parent="90S8i4eGVS4S6o-vOTUU-99" vertex="1">
          <mxGeometry x="30" width="220" height="30" as="geometry">
            <mxRectangle width="220" height="30" as="alternateBounds" />
          </mxGeometry>
        </mxCell>
        <mxCell id="90S8i4eGVS4S6o-vOTUU-83" value="" style="shape=partialRectangle;collapsible=0;dropTarget=0;pointerEvents=0;fillColor=none;points=[[0,0.5],[1,0.5]];portConstraint=eastwest;top=0;left=0;right=0;bottom=0;textShadow=0;fontColor=light-dark(#000000,#000000);strokeColor=light-dark(#000000,#000000);rounded=1;" parent="90S8i4eGVS4S6o-vOTUU-76" vertex="1">
          <mxGeometry y="90" width="250" height="30" as="geometry" />
        </mxCell>
        <mxCell id="90S8i4eGVS4S6o-vOTUU-84" value="FK" style="shape=partialRectangle;overflow=hidden;connectable=0;fillColor=none;top=0;left=0;bottom=0;right=0;textShadow=0;fontColor=light-dark(#000000,#000000);strokeColor=light-dark(#000000,#000000);rounded=1;" parent="90S8i4eGVS4S6o-vOTUU-83" vertex="1">
          <mxGeometry width="30" height="30" as="geometry">
            <mxRectangle width="30" height="30" as="alternateBounds" />
          </mxGeometry>
        </mxCell>
        <mxCell id="90S8i4eGVS4S6o-vOTUU-85" value="user_id" style="shape=partialRectangle;overflow=hidden;connectable=0;fillColor=none;top=0;left=0;bottom=0;right=0;align=left;spacingLeft=6;textShadow=0;fontColor=light-dark(#000000,#000000);strokeColor=light-dark(#000000,#000000);rounded=1;" parent="90S8i4eGVS4S6o-vOTUU-83" vertex="1">
          <mxGeometry x="30" width="220" height="30" as="geometry">
            <mxRectangle width="220" height="30" as="alternateBounds" />
          </mxGeometry>
        </mxCell>
        <mxCell id="90S8i4eGVS4S6o-vOTUU-89" style="shape=partialRectangle;collapsible=0;dropTarget=0;pointerEvents=0;fillColor=none;points=[[0,0.5],[1,0.5]];portConstraint=eastwest;top=0;left=0;right=0;bottom=0;textShadow=0;fontColor=light-dark(#000000,#000000);strokeColor=light-dark(#000000,#000000);rounded=1;" parent="90S8i4eGVS4S6o-vOTUU-76" vertex="1">
          <mxGeometry y="120" width="250" height="30" as="geometry" />
        </mxCell>
        <mxCell id="90S8i4eGVS4S6o-vOTUU-90" style="shape=partialRectangle;overflow=hidden;connectable=0;fillColor=none;top=0;left=0;bottom=0;right=0;textShadow=0;fontColor=light-dark(#000000,#000000);strokeColor=light-dark(#000000,#000000);rounded=1;" parent="90S8i4eGVS4S6o-vOTUU-89" vertex="1">
          <mxGeometry width="30" height="30" as="geometry">
            <mxRectangle width="30" height="30" as="alternateBounds" />
          </mxGeometry>
        </mxCell>
        <mxCell id="90S8i4eGVS4S6o-vOTUU-91" value="emoji" style="shape=partialRectangle;overflow=hidden;connectable=0;fillColor=none;top=0;left=0;bottom=0;right=0;align=left;spacingLeft=6;textShadow=0;fontColor=light-dark(#000000,#000000);strokeColor=light-dark(#000000,#000000);rounded=1;" parent="90S8i4eGVS4S6o-vOTUU-89" vertex="1">
          <mxGeometry x="30" width="220" height="30" as="geometry">
            <mxRectangle width="220" height="30" as="alternateBounds" />
          </mxGeometry>
        </mxCell>
        <mxCell id="90S8i4eGVS4S6o-vOTUU-92" style="shape=partialRectangle;collapsible=0;dropTarget=0;pointerEvents=0;fillColor=none;points=[[0,0.5],[1,0.5]];portConstraint=eastwest;top=0;left=0;right=0;bottom=0;textShadow=0;fontColor=light-dark(#000000,#000000);strokeColor=light-dark(#000000,#000000);rounded=1;" parent="90S8i4eGVS4S6o-vOTUU-76" vertex="1">
          <mxGeometry y="150" width="250" height="30" as="geometry" />
        </mxCell>
        <mxCell id="90S8i4eGVS4S6o-vOTUU-93" style="shape=partialRectangle;overflow=hidden;connectable=0;fillColor=none;top=0;left=0;bottom=0;right=0;textShadow=0;fontColor=light-dark(#000000,#000000);strokeColor=light-dark(#000000,#000000);rounded=1;" parent="90S8i4eGVS4S6o-vOTUU-92" vertex="1">
          <mxGeometry width="30" height="30" as="geometry">
            <mxRectangle width="30" height="30" as="alternateBounds" />
          </mxGeometry>
        </mxCell>
        <mxCell id="90S8i4eGVS4S6o-vOTUU-94" value="reacted_at" style="shape=partialRectangle;overflow=hidden;connectable=0;fillColor=none;top=0;left=0;bottom=0;right=0;align=left;spacingLeft=6;textShadow=0;fontColor=light-dark(#000000,#000000);strokeColor=light-dark(#000000,#000000);rounded=1;" parent="90S8i4eGVS4S6o-vOTUU-92" vertex="1">
          <mxGeometry x="30" width="220" height="30" as="geometry">
            <mxRectangle width="220" height="30" as="alternateBounds" />
          </mxGeometry>
        </mxCell>
        <mxCell id="KlMqCPawbF4SIBuH-tO9-16" style="shape=partialRectangle;collapsible=0;dropTarget=0;pointerEvents=0;fillColor=none;points=[[0,0.5],[1,0.5]];portConstraint=eastwest;top=0;left=0;right=0;bottom=0;textShadow=0;fontColor=light-dark(#000000,#000000);strokeColor=light-dark(#000000,#000000);rounded=1;" parent="90S8i4eGVS4S6o-vOTUU-76" vertex="1">
          <mxGeometry y="180" width="250" height="30" as="geometry" />
        </mxCell>
        <mxCell id="KlMqCPawbF4SIBuH-tO9-17" style="shape=partialRectangle;overflow=hidden;connectable=0;fillColor=none;top=0;left=0;bottom=0;right=0;textShadow=0;fontColor=light-dark(#000000,#000000);strokeColor=light-dark(#000000,#000000);rounded=1;" parent="KlMqCPawbF4SIBuH-tO9-16" vertex="1">
          <mxGeometry width="30" height="30" as="geometry">
            <mxRectangle width="30" height="30" as="alternateBounds" />
          </mxGeometry>
        </mxCell>
        <mxCell id="KlMqCPawbF4SIBuH-tO9-18" value="created_at" style="shape=partialRectangle;overflow=hidden;connectable=0;fillColor=none;top=0;left=0;bottom=0;right=0;align=left;spacingLeft=6;textShadow=0;fontColor=light-dark(#000000,#000000);strokeColor=light-dark(#000000,#000000);rounded=1;" parent="KlMqCPawbF4SIBuH-tO9-16" vertex="1">
          <mxGeometry x="30" width="220" height="30" as="geometry">
            <mxRectangle width="220" height="30" as="alternateBounds" />
          </mxGeometry>
        </mxCell>
        <mxCell id="90S8i4eGVS4S6o-vOTUU-102" value="&lt;span style=&quot;color: rgba(0, 0, 0, 0); font-family: monospace; font-size: 0px; text-align: start; background-color: rgb(27, 29, 30);&quot;&gt;%3CmxGraphModel%3E%3Croot%3E%3CmxCell%20id%3D%220%22%2F%3E%3CmxCell%20id%3D%221%22%20parent%3D%220%22%2F%3E%3CmxCell%20id%3D%222%22%20style%3D%22edgeStyle%3DorthogonalEdgeStyle%3Brounded%3D1%3BorthogonalLoop%3D1%3BjettySize%3Dauto%3Bhtml%3D1%3BexitX%3D1%3BexitY%3D0.5%3BexitDx%3D0%3BexitDy%3D0%3BstrokeColor%3Dlight-dark(%23000000%2C%23000000)%3BendArrow%3DERoneToMany%3BendFill%3D0%3BentryX%3D0%3BentryY%3D0.5%3BentryDx%3D0%3BentryDy%3D0%3B%22%20edge%3D%221%22%20parent%3D%221%22%3E%3CmxGeometry%20relative%3D%221%22%20as%3D%22geometry%22%3E%3CmxPoint%20x%3D%22-10%22%20y%3D%22133%22%20as%3D%22sourcePoint%22%2F%3E%3CmxPoint%20x%3D%2250%22%20y%3D%22585%22%20as%3D%22targetPoint%22%2F%3E%3CArray%20as%3D%22points%22%3E%3CmxPoint%20x%3D%2210%22%20y%3D%22133%22%2F%3E%3CmxPoint%20x%3D%2210%22%20y%3D%22585%22%2F%3E%3C%2FArray%3E%3C%2FmxGeometry%3E%3C%2FmxCell%3E%3C%2Froot%3E%3C%2FmxGraphModel%3E&lt;/span&gt;" style="edgeStyle=orthogonalEdgeStyle;rounded=1;orthogonalLoop=1;jettySize=auto;html=1;strokeColor=light-dark(#000000,#000000);endArrow=ERoneToMany;endFill=0;entryX=0;entryY=0.5;entryDx=0;entryDy=0;exitX=1;exitY=0.5;exitDx=0;exitDy=0;" parent="1" source="C-vyLk0tnHw3VtMMgP7b-24" target="90S8i4eGVS4S6o-vOTUU-83" edge="1">
          <mxGeometry relative="1" as="geometry">
            <mxPoint x="-110" y="50" as="sourcePoint" />
            <mxPoint x="90" y="780" as="targetPoint" />
            <Array as="points">
              <mxPoint x="-130" y="85" />
              <mxPoint x="-130" y="590" />
              <mxPoint x="300" y="590" />
              <mxPoint x="300" y="745" />
            </Array>
          </mxGeometry>
        </mxCell>
        <mxCell id="90S8i4eGVS4S6o-vOTUU-103" value="" style="edgeStyle=orthogonalEdgeStyle;fontSize=12;html=1;endArrow=none;rounded=1;strokeColor=light-dark(#000000,#000000);startArrow=ERoneToMany;startFill=0;entryX=1;entryY=0.5;entryDx=0;entryDy=0;exitX=0;exitY=0.5;exitDx=0;exitDy=0;" parent="1" source="C-vyLk0tnHw3VtMMgP7b-20" target="C-vyLk0tnHw3VtMMgP7b-24" edge="1">
          <mxGeometry width="100" height="100" relative="1" as="geometry">
            <mxPoint x="120" y="584.97" as="sourcePoint" />
            <mxPoint x="-60" y="354.97" as="targetPoint" />
            <Array as="points">
              <mxPoint x="300" y="425" />
              <mxPoint x="300" y="580" />
              <mxPoint x="-120" y="580" />
              <mxPoint x="-120" y="85" />
            </Array>
          </mxGeometry>
        </mxCell>
        <mxCell id="qVUILYzi2cgCOJXywEAA-36" value="" style="edgeStyle=orthogonalEdgeStyle;fontSize=12;html=1;endArrow=none;rounded=1;strokeColor=light-dark(#000000,#000000);startArrow=ERoneToMany;startFill=0;entryX=0;entryY=0.5;entryDx=0;entryDy=0;exitX=0;exitY=0.5;exitDx=0;exitDy=0;" edge="1" parent="1" source="2w68A3cYPR3M8UwBagFj-83" target="C-vyLk0tnHw3VtMMgP7b-24">
          <mxGeometry width="100" height="100" relative="1" as="geometry">
            <mxPoint x="-500" y="240" as="sourcePoint" />
            <mxPoint x="-500" y="60" as="targetPoint" />
            <Array as="points">
              <mxPoint x="-450" y="455" />
              <mxPoint x="-450" y="85" />
            </Array>
          </mxGeometry>
        </mxCell>
        <mxCell id="qVUILYzi2cgCOJXywEAA-37" value="" style="edgeStyle=orthogonalEdgeStyle;fontSize=12;html=1;endArrow=none;rounded=1;strokeColor=light-dark(#000000,#000000);startArrow=ERoneToMany;startFill=0;entryX=0;entryY=0.5;entryDx=0;entryDy=0;exitX=0;exitY=0.5;exitDx=0;exitDy=0;" edge="1" parent="1" source="2w68A3cYPR3M8UwBagFj-153" target="C-vyLk0tnHw3VtMMgP7b-24">
          <mxGeometry width="100" height="100" relative="1" as="geometry">
            <mxPoint x="-410" y="610" as="sourcePoint" />
            <mxPoint x="-410" y="240" as="targetPoint" />
            <Array as="points">
              <mxPoint x="-460" y="695" />
              <mxPoint x="-460" y="85" />
            </Array>
          </mxGeometry>
        </mxCell>
        <mxCell id="qVUILYzi2cgCOJXywEAA-38" value="" style="edgeStyle=orthogonalEdgeStyle;fontSize=12;html=1;endArrow=none;rounded=1;strokeColor=light-dark(#000000,#000000);startArrow=ERoneToMany;startFill=0;entryX=0;entryY=0.5;entryDx=0;entryDy=0;exitX=1;exitY=0.5;exitDx=0;exitDy=0;" edge="1" parent="1" source="2w68A3cYPR3M8UwBagFj-156" target="C-vyLk0tnHw3VtMMgP7b-3">
          <mxGeometry width="100" height="100" relative="1" as="geometry">
            <mxPoint x="-20" y="660" as="sourcePoint" />
            <mxPoint x="-20" y="50" as="targetPoint" />
            <Array as="points">
              <mxPoint x="-70" y="725" />
              <mxPoint x="-70" y="85" />
            </Array>
          </mxGeometry>
        </mxCell>
        <mxCell id="qVUILYzi2cgCOJXywEAA-39" value="" style="edgeStyle=orthogonalEdgeStyle;fontSize=12;html=1;endArrow=none;rounded=1;strokeColor=light-dark(#000000,#000000);startArrow=ERoneToMany;startFill=0;entryX=0;entryY=0.5;entryDx=0;entryDy=0;exitX=0;exitY=0.5;exitDx=0;exitDy=0;" edge="1" parent="1" source="2w68A3cYPR3M8UwBagFj-48" target="C-vyLk0tnHw3VtMMgP7b-3">
          <mxGeometry width="100" height="100" relative="1" as="geometry">
            <mxPoint x="-150" y="740" as="sourcePoint" />
            <mxPoint x="30" y="100" as="targetPoint" />
            <Array as="points">
              <mxPoint x="-60" y="725" />
              <mxPoint x="-60" y="85" />
            </Array>
          </mxGeometry>
        </mxCell>
        <mxCell id="qVUILYzi2cgCOJXywEAA-46" value="" style="edgeStyle=orthogonalEdgeStyle;fontSize=12;html=1;endArrow=none;rounded=1;strokeColor=light-dark(#000000,#000000);startArrow=ERoneToMany;startFill=0;entryX=1;entryY=0.5;entryDx=0;entryDy=0;exitX=0;exitY=0.5;exitDx=0;exitDy=0;" edge="1" parent="1" source="qVUILYzi2cgCOJXywEAA-43" target="2w68A3cYPR3M8UwBagFj-118">
          <mxGeometry width="100" height="100" relative="1" as="geometry">
            <mxPoint x="-400" y="670" as="sourcePoint" />
            <mxPoint x="-540" y="640" as="targetPoint" />
            <Array as="points">
              <mxPoint x="-500" y="755" />
              <mxPoint x="-500" y="665" />
            </Array>
          </mxGeometry>
        </mxCell>
      </root>
    </mxGraphModel>
  </diagram>
</mxfile>
